<svg xmlns="http://www.w3.org/2000/svg" xmlns:xlink="http://www.w3.org/1999/xlink" width="500" zoomAndPan="magnify" viewBox="0 0 375 374.999991" height="500" preserveAspectRatio="xMidYMid meet" version="1.0"><defs><clipPath id="8f39c45a80"><path d="M 26.617188 11.191406 L 348 11.191406 L 348 363.691406 L 26.617188 363.691406 Z M 26.617188 11.191406 " clip-rule="nonzero"/></clipPath></defs><path fill="#939498" d="M 341.597656 146.164062 C 341.597656 146.164062 331.183594 114.929688 317.117188 94.839844 L 329.722656 100.503906 C 329.722656 100.503906 317.847656 84.246094 305.242188 78.949219 C 305.242188 78.949219 326.796875 69.269531 331.730469 18.679688 C 331.730469 18.679688 285.144531 46.074219 234.71875 38.769531 C 234.71875 38.769531 213.160156 23.0625 189.226562 21.601562 C 188.679688 21.601562 188.132812 21.601562 187.582031 21.601562 C 187.035156 21.601562 186.488281 21.601562 185.9375 21.601562 L 185.9375 21.785156 C 162.1875 23.246094 140.449219 38.953125 140.449219 38.953125 C 90.023438 46.257812 43.4375 18.859375 43.4375 18.859375 C 48.367188 69.453125 69.925781 79.132812 69.925781 79.132812 C 57.320312 84.429688 45.445312 100.683594 45.445312 100.683594 L 58.050781 95.023438 C 43.984375 114.929688 33.570312 146.34375 33.570312 146.34375 C 38.867188 138.855469 48.550781 130.636719 48.550781 130.636719 C 30.464844 166.070312 39.417969 202.964844 39.417969 202.964844 C 41.0625 193.832031 45.628906 184.882812 45.628906 184.882812 C 45.992188 215.382812 68.28125 236.386719 68.28125 236.386719 L 65.90625 222.140625 C 95.6875 234.5625 109.023438 265.246094 109.023438 265.246094 C 110.121094 252.09375 105.734375 244.789062 105.734375 244.789062 C 105.734375 244.789062 114.503906 246.800781 127.476562 266.890625 C 140.449219 287.164062 139.351562 304.515625 145.746094 334.46875 C 151.410156 360.585938 180.277344 360.949219 187.582031 360.585938 C 194.890625 360.949219 223.757812 360.402344 229.421875 334.46875 C 235.816406 304.695312 234.71875 287.164062 247.691406 266.890625 C 260.664062 246.617188 269.433594 244.789062 269.433594 244.789062 C 269.433594 244.789062 265.046875 251.914062 266.144531 265.246094 C 266.144531 265.246094 279.480469 234.5625 309.257812 222.140625 L 306.882812 236.386719 C 306.882812 236.386719 328.992188 215.203125 329.539062 184.882812 C 329.539062 184.882812 334.105469 193.832031 335.75 202.964844 C 335.75 202.964844 344.703125 166.070312 326.617188 130.636719 C 326.617188 130.457031 336.296875 138.675781 341.597656 146.164062 Z M 341.597656 146.164062 " fill-opacity="1" fill-rule="nonzero"/><path fill="#53535c" d="M 168.21875 170.636719 C 157.074219 175.386719 151.410156 185.429688 158.71875 205.703125 C 165.292969 224.332031 184.84375 224.699219 187.582031 224.699219 C 190.324219 224.699219 209.871094 224.335938 216.449219 205.703125 C 223.574219 185.429688 217.910156 175.386719 206.949219 170.636719 C 195.804688 165.886719 199.457031 160.957031 199.457031 160.957031 C 191.96875 163.878906 192.699219 173.011719 192.699219 173.011719 C 192.699219 173.011719 214.988281 169.542969 213.34375 193.648438 C 211.699219 216.113281 190.507812 217.394531 187.582031 217.578125 C 184.660156 217.578125 163.46875 216.113281 161.824219 193.648438 C 159.996094 169.359375 182.285156 172.828125 182.285156 172.828125 C 182.285156 172.828125 183.199219 163.695312 175.527344 160.773438 C 175.707031 160.773438 179.179688 165.886719 168.21875 170.636719 Z M 168.21875 170.636719 " fill-opacity="1" fill-rule="nonzero"/><path fill="#53535c" d="M 103.910156 100.136719 C 103.910156 100.136719 91.121094 105.433594 96.234375 120.226562 C 97.515625 124.0625 97.878906 128.082031 97.332031 132.097656 C 95.6875 142.875 95.503906 159.859375 121.265625 158.21875 C 121.265625 158.21875 108.660156 158.765625 104.273438 145.796875 C 99.707031 132.832031 104.820312 124.0625 104.820312 124.0625 C 104.820312 124.0625 97.878906 108.539062 103.910156 100.136719 Z M 103.910156 100.136719 " fill-opacity="1" fill-rule="nonzero"/><path fill="#53535c" d="M 156.34375 141.78125 C 156.34375 141.78125 169.3125 136.117188 167.488281 116.757812 C 165.476562 97.582031 135.332031 91.371094 135.332031 91.371094 C 170.042969 113.289062 156.34375 141.78125 156.34375 141.78125 Z M 156.34375 141.78125 " fill-opacity="1" fill-rule="nonzero"/><path fill="#53535c" d="M 270.710938 145.980469 C 266.144531 158.949219 253.71875 158.398438 253.71875 158.398438 C 279.664062 159.859375 279.480469 143.058594 277.652344 132.28125 C 277.105469 128.265625 277.289062 124.246094 278.75 120.410156 C 283.863281 105.617188 271.074219 100.320312 271.074219 100.320312 C 277.105469 108.722656 270.164062 124.429688 270.164062 124.429688 C 270.164062 124.429688 275.277344 133.011719 270.710938 145.980469 Z M 270.710938 145.980469 " fill-opacity="1" fill-rule="nonzero"/><path fill="#53535c" d="M 239.835938 91.554688 C 239.835938 91.554688 209.507812 97.761719 207.679688 116.941406 C 205.851562 136.117188 218.640625 141.78125 218.640625 141.78125 C 218.640625 141.78125 205.121094 113.289062 239.835938 91.554688 Z M 239.835938 91.554688 " fill-opacity="1" fill-rule="nonzero"/><path fill="#53535c" d="M 339.039062 140.867188 C 339.039062 140.867188 326.433594 104.703125 314.742188 94.109375 L 328.261719 97.761719 C 328.261719 97.761719 311.269531 80.046875 300.488281 80.59375 C 297.933594 80.777344 295.558594 80.777344 293.546875 80.960938 C 300.855469 76.210938 320.585938 60.867188 327.347656 30.367188 C 327.347656 30.367188 325.335938 33.835938 321.867188 39.132812 C 326.980469 29.089844 327.894531 21.964844 327.894531 21.964844 C 327.894531 21.964844 304.507812 53.378906 292.632812 61.050781 C 280.757812 68.722656 259.929688 53.015625 259.929688 53.015625 C 265.777344 77.125 294.828125 70.183594 294.828125 70.183594 C 296.472656 68.90625 298.113281 67.625 299.578125 66.347656 C 295.007812 70.914062 290.078125 74.933594 285.144531 78.21875 C 284.046875 77.125 283.132812 75.480469 282.953125 73.835938 C 282.953125 73.835938 277.46875 81.140625 262.488281 80.046875 C 262.488281 80.046875 266.324219 83.335938 271.808594 85.890625 C 259.929688 85.707031 249.699219 90.273438 249.699219 90.273438 C 283.132812 88.996094 285.875 114.019531 285.875 114.019531 C 299.578125 122.96875 305.242188 133.378906 305.242188 133.378906 C 303.414062 122.417969 299.210938 109.816406 299.210938 109.816406 C 309.441406 120.226562 317.847656 139.039062 317.847656 139.039062 C 313.097656 117.488281 303.597656 95.753906 303.597656 95.753906 C 303.597656 95.753906 303.777344 95.753906 303.777344 95.753906 C 310.355469 97.03125 316.019531 101.414062 318.761719 107.441406 C 322.230469 115.113281 326.25 124.976562 329.355469 135.933594 C 329.355469 135.933594 323.144531 126.074219 319.855469 121.871094 C 319.855469 121.871094 331.546875 137.945312 330.816406 187.621094 C 330.816406 187.621094 327.710938 172.644531 326.617188 169.175781 C 326.617188 169.175781 328.441406 204.242188 308.894531 222.507812 L 313.460938 215.382812 C 313.460938 215.382812 284.414062 220.316406 268.335938 247.894531 C 268.335938 247.894531 272.355469 236.207031 276.375 231.824219 C 276.375 231.824219 258.46875 240.953125 244.402344 260.316406 C 244.769531 256.660156 247.691406 232.734375 263.402344 222.140625 C 280.394531 210.636719 280.941406 193.648438 280.941406 193.648438 C 284.960938 206.253906 283.5 217.027344 283.5 217.027344 C 290.808594 205.703125 295.007812 181.777344 295.007812 181.777344 C 300.488281 192.371094 302.5 201.136719 302.5 201.136719 C 307.066406 130.636719 285.328125 118.765625 285.328125 118.765625 C 303.046875 135.570312 300.855469 173.011719 300.855469 173.011719 L 286.421875 162.417969 C 291.722656 176.480469 286.238281 194.378906 286.238281 194.378906 L 276.375 184.882812 C 274.183594 204.792969 249.882812 222.140625 245.679688 231.640625 C 241.84375 240.589844 244.035156 257.757812 244.402344 260.316406 C 238.554688 268.351562 233.441406 278.214844 230.515625 289.902344 C 233.625 256.84375 242.574219 213.375 242.574219 213.375 C 258.652344 175.933594 239.652344 170.089844 239.652344 170.089844 C 238.554688 164.609375 233.257812 161.324219 230.152344 159.859375 C 231.613281 158.765625 232.34375 156.207031 232.710938 154.015625 C 232.890625 152.554688 234.355469 151.460938 235.816406 151.824219 C 238.375 152.371094 242.941406 152.371094 249.882812 149.269531 C 258.289062 145.433594 260.84375 139.40625 261.574219 135.933594 C 262.488281 131.550781 268.335938 130.273438 270.894531 133.925781 C 270.894531 133.925781 270.894531 134.109375 270.894531 134.109375 C 270.710938 130.273438 268.519531 122.601562 268.519531 122.601562 L 257.375 126.621094 C 257.375 126.621094 257.007812 129.359375 252.257812 139.039062 C 247.507812 148.71875 232.710938 143.605469 232.710938 143.605469 L 226.316406 149.085938 L 228.140625 159.679688 C 227.777344 159.496094 227.59375 159.496094 227.59375 159.496094 C 227.777344 159.859375 227.960938 160.042969 228.324219 160.410156 L 228.324219 160.957031 C 228.324219 160.957031 228.507812 160.957031 228.507812 160.957031 C 240.015625 178.125 240.199219 179.402344 239.46875 195.839844 C 238.738281 212.644531 226.863281 252.644531 226.679688 253.558594 C 226.496094 254.46875 219.191406 324.96875 219.191406 324.96875 L 224.304688 320.585938 C 216.265625 343.417969 197.816406 345.0625 189.410156 344.511719 L 189.410156 343.964844 C 189.410156 343.964844 188.679688 344.148438 187.402344 344.332031 C 186.121094 344.148438 185.390625 343.964844 185.390625 343.964844 L 185.390625 344.511719 C 177.171875 345.0625 158.71875 343.417969 150.496094 320.585938 L 155.613281 324.789062 C 155.613281 324.789062 148.304688 254.105469 148.121094 253.375 C 147.9375 252.460938 136.0625 212.644531 135.332031 195.660156 C 134.601562 179.222656 134.785156 177.941406 146.292969 160.773438 C 146.292969 160.773438 146.476562 160.773438 146.476562 160.773438 L 146.476562 160.226562 C 146.660156 159.859375 146.84375 159.679688 147.023438 159.3125 C 147.023438 159.3125 146.84375 159.3125 146.476562 159.496094 L 148.304688 148.902344 L 141.910156 143.421875 C 141.910156 143.421875 127.476562 148.902344 122.726562 139.222656 C 117.976562 129.542969 117.609375 126.804688 117.609375 126.804688 L 106.464844 122.785156 C 106.464844 122.785156 104.273438 130.457031 104.089844 134.292969 C 104.089844 134.292969 104.089844 134.292969 104.089844 134.109375 C 106.648438 130.273438 112.496094 131.550781 113.410156 136.117188 C 114.140625 139.769531 116.699219 145.796875 125.101562 149.449219 C 132.226562 152.554688 136.613281 152.554688 139.167969 152.007812 C 140.628906 151.640625 142.09375 152.738281 142.273438 154.199219 C 142.640625 156.390625 143.1875 158.949219 144.832031 160.042969 C 141.726562 161.503906 136.429688 164.792969 135.332031 170.273438 C 135.332031 170.273438 116.148438 176.117188 132.410156 213.558594 C 132.410156 213.558594 141.179688 256.84375 144.46875 289.902344 C 141.542969 278.214844 136.429688 268.535156 130.582031 260.496094 C 130.949219 257.941406 133.140625 240.773438 129.304688 231.824219 C 125.101562 222.140625 100.804688 204.972656 98.609375 185.066406 L 88.746094 194.5625 C 88.746094 194.5625 83.265625 176.664062 88.5625 162.601562 L 74.128906 173.195312 C 74.128906 173.195312 71.9375 135.753906 89.660156 118.949219 C 89.660156 118.949219 67.917969 130.820312 72.484375 201.320312 C 72.484375 201.320312 74.496094 192.554688 79.976562 181.960938 C 79.976562 181.960938 84.175781 205.886719 91.484375 217.210938 C 91.484375 217.210938 90.023438 206.253906 94.042969 193.832031 C 94.042969 193.832031 94.589844 210.820312 111.582031 222.324219 C 127.292969 232.917969 130.21875 256.84375 130.582031 260.496094 C 116.515625 241.136719 98.609375 232.003906 98.609375 232.003906 C 102.628906 236.386719 106.648438 248.078125 106.648438 248.078125 C 90.570312 220.5 61.523438 215.566406 61.523438 215.566406 L 66.089844 222.691406 C 46.726562 204.242188 48.550781 169.175781 48.550781 169.175781 C 47.636719 172.644531 44.347656 187.621094 44.347656 187.621094 C 43.617188 137.945312 55.3125 121.871094 55.3125 121.871094 C 52.023438 125.890625 45.8125 135.933594 45.8125 135.933594 C 48.917969 124.976562 52.9375 115.296875 56.40625 107.441406 C 59.148438 101.234375 64.8125 96.847656 71.386719 95.753906 C 71.570312 95.753906 71.570312 95.753906 71.753906 95.753906 C 71.753906 95.753906 62.253906 117.671875 57.503906 139.039062 C 57.503906 139.039062 65.90625 120.226562 76.140625 109.816406 C 76.140625 109.816406 71.753906 122.417969 70.109375 133.378906 C 70.109375 133.378906 75.773438 122.96875 89.476562 114.019531 C 89.476562 114.019531 92.214844 88.996094 125.648438 90.273438 C 125.648438 90.273438 115.234375 85.707031 103.359375 85.890625 C 108.839844 83.335938 112.679688 80.046875 112.679688 80.046875 C 97.695312 81.140625 92.214844 73.835938 92.214844 73.835938 C 92.035156 75.480469 91.121094 77.125 90.023438 78.21875 C 84.910156 74.933594 79.976562 70.730469 75.589844 66.347656 C 77.050781 67.625 78.695312 68.90625 80.339844 70.183594 C 80.339844 70.183594 109.390625 77.125 115.234375 53.015625 C 115.234375 53.015625 94.410156 68.722656 82.53125 61.050781 C 70.65625 53.378906 47.273438 21.785156 47.273438 21.785156 C 47.273438 21.785156 48.1875 29.089844 53.300781 38.953125 C 49.832031 33.65625 47.820312 30.183594 47.820312 30.183594 C 54.582031 60.6875 74.3125 76.027344 81.621094 80.777344 C 79.609375 80.777344 77.234375 80.59375 74.675781 80.410156 C 63.714844 80.046875 46.90625 97.761719 46.90625 97.761719 L 60.425781 94.109375 C 48.734375 104.703125 36.128906 140.867188 36.128906 140.867188 L 42.886719 137.578125 C 34.117188 165.886719 38.136719 193.648438 38.136719 193.648438 L 45.445312 192.007812 C 49.464844 217.757812 68.464844 236.570312 68.464844 236.570312 C 67.003906 231.273438 68.28125 223.054688 68.28125 223.054688 C 92.582031 233.648438 107.378906 261.59375 107.378906 261.59375 L 108.839844 247.894531 C 130.398438 261.410156 141.726562 296.660156 141.726562 296.660156 C 141.726562 296.660156 139.898438 319.125 149.035156 340.859375 C 156.160156 357.664062 176.621094 360.949219 185.390625 361.5 L 185.390625 361.679688 C 185.390625 361.679688 186.121094 361.679688 187.402344 361.679688 C 188.679688 361.679688 189.410156 361.679688 189.410156 361.679688 L 189.410156 361.5 C 198.363281 360.949219 218.824219 357.664062 225.765625 340.859375 C 234.902344 319.125 233.074219 296.660156 233.074219 296.660156 C 233.074219 296.660156 244.402344 261.59375 265.960938 247.894531 L 267.421875 261.59375 C 267.421875 261.59375 282.21875 233.648438 306.519531 223.054688 C 306.519531 223.054688 307.796875 231.089844 306.335938 236.570312 C 306.335938 236.570312 325.335938 217.757812 329.355469 192.007812 L 336.664062 193.648438 C 336.664062 193.648438 340.683594 166.070312 331.914062 137.578125 Z M 339.039062 140.867188 " fill-opacity="1" fill-rule="nonzero"/><path fill="#53535c" d="M 172.785156 84.246094 C 162.738281 81.140625 145.929688 83.515625 145.929688 83.515625 C 189.957031 89.542969 182.652344 137.578125 182.652344 137.578125 C 180.09375 134.839844 174.613281 135.023438 174.613281 135.023438 C 181.1875 139.40625 181.1875 147.441406 181.1875 147.441406 C 177.171875 142.875 171.871094 140.683594 171.871094 140.683594 C 176.4375 144.519531 179.179688 148.902344 180.640625 152.371094 C 170.777344 143.058594 155.246094 146.527344 155.246094 146.527344 C 183.015625 150.546875 183.5625 171.183594 183.5625 171.183594 L 191.785156 171.183594 C 191.785156 171.183594 192.332031 150.546875 220.105469 146.527344 C 220.105469 146.527344 204.574219 143.058594 194.890625 152.191406 C 196.535156 148.71875 199.09375 144.335938 203.660156 140.5 C 203.660156 140.5 198.363281 142.691406 194.34375 147.257812 C 194.34375 147.257812 194.34375 139.222656 200.921875 134.839844 C 200.921875 134.839844 195.441406 134.65625 192.882812 137.394531 C 192.882812 137.394531 185.390625 89.359375 229.605469 83.335938 C 229.605469 83.335938 212.796875 80.960938 202.746094 84.066406 C 202.746094 84.066406 223.574219 70.550781 245.132812 81.507812 C 245.132812 81.507812 233.441406 62.878906 188.316406 62.695312 C 188.132812 62.695312 188.132812 62.695312 187.949219 62.695312 C 187.765625 62.695312 187.765625 62.695312 187.582031 62.695312 C 142.457031 62.878906 130.765625 81.507812 130.765625 81.507812 C 151.957031 70.730469 172.785156 84.246094 172.785156 84.246094 Z M 172.785156 84.246094 " fill-opacity="1" fill-rule="nonzero"/><path fill="#53535c" d="M 60.425781 198.945312 C 60.425781 198.945312 60.609375 162.234375 71.9375 137.945312 C 71.9375 137.945312 64.261719 145.980469 60.246094 167.898438 C 60.246094 167.898438 59.511719 154.929688 62.621094 140.5 C 62.800781 140.5 49.832031 169.542969 60.425781 198.945312 Z M 60.425781 198.945312 " fill-opacity="1" fill-rule="nonzero"/><path fill="#53535c" d="M 139.898438 158.398438 C 139.898438 158.398438 130.21875 158.21875 119.984375 162.417969 C 109.753906 166.617188 101.535156 159.859375 101.535156 159.859375 C 109.023438 194.378906 123.640625 203.148438 123.640625 203.148438 C 114.140625 174.472656 139.898438 158.398438 139.898438 158.398438 Z M 139.898438 158.398438 " fill-opacity="1" fill-rule="nonzero"/><path fill="#53535c" d="M 302.863281 137.945312 C 314.375 162.417969 314.375 198.945312 314.375 198.945312 C 324.972656 169.359375 312 140.5 312 140.5 C 315.105469 154.746094 314.375 167.898438 314.375 167.898438 C 310.355469 145.980469 302.863281 137.945312 302.863281 137.945312 Z M 302.863281 137.945312 " fill-opacity="1" fill-rule="nonzero"/><path fill="#53535c" d="M 273.449219 159.859375 C 273.449219 159.859375 265.230469 166.617188 255 162.417969 C 244.769531 158.21875 235.085938 158.398438 235.085938 158.398438 C 235.085938 158.398438 260.84375 174.472656 251.34375 202.964844 C 251.34375 203.148438 265.960938 194.378906 273.449219 159.859375 Z M 273.449219 159.859375 " fill-opacity="1" fill-rule="nonzero"/><path fill="#53535c" d="M 110.851562 112.375 C 110.851562 112.375 130.949219 115.84375 143.554688 136.117188 L 148.304688 133.742188 C 148.304688 133.742188 139.167969 108.722656 110.851562 112.375 Z M 110.851562 112.375 " fill-opacity="1" fill-rule="nonzero"/><path fill="#53535c" d="M 263.949219 112.375 C 235.449219 108.539062 226.316406 133.742188 226.316406 133.742188 L 231.066406 136.117188 C 243.855469 115.84375 263.949219 112.375 263.949219 112.375 Z M 263.949219 112.375 " fill-opacity="1" fill-rule="nonzero"/><path fill="#eb1d25" d="M 187.582031 257.390625 C 169.3125 251.914062 159.8125 261.777344 161.273438 280.222656 C 162.371094 297.027344 183.199219 295.929688 187.582031 295.382812 C 191.96875 295.746094 212.796875 296.84375 213.890625 280.222656 C 215.355469 261.777344 205.851562 251.914062 187.582031 257.390625 Z M 187.582031 257.390625 " fill-opacity="1" fill-rule="nonzero"/><path fill="#eb1d25" d="M 130.398438 144.882812 C 142.457031 148.355469 148.488281 138.855469 148.488281 138.855469 C 148.488281 138.855469 135.148438 129.726562 119.621094 128.265625 C 119.621094 128.082031 118.339844 141.414062 130.398438 144.882812 Z M 130.398438 144.882812 " fill-opacity="1" fill-rule="nonzero"/><path fill="#eb1d25" d="M 255.363281 128.082031 C 239.835938 129.726562 226.496094 138.675781 226.496094 138.675781 C 226.496094 138.675781 232.527344 148.171875 244.585938 144.703125 C 256.644531 141.414062 255.363281 128.082031 255.363281 128.082031 Z M 255.363281 128.082031 " fill-opacity="1" fill-rule="nonzero"/><path fill="#9f1d21" d="M 204.757812 254.289062 C 198.726562 252.09375 190.140625 254.652344 187.582031 255.566406 C 185.027344 254.652344 176.4375 252.09375 170.410156 254.289062 C 163.101562 256.84375 159.449219 272.1875 161.457031 284.605469 C 163.285156 296.113281 184.476562 295.382812 187.582031 295.199219 C 190.691406 295.382812 211.882812 296.113281 213.710938 284.605469 C 215.71875 272.1875 212.066406 256.84375 204.757812 254.289062 Z M 197.996094 286.796875 C 192.332031 287.527344 189.59375 286.433594 188.132812 285.335938 C 187.949219 285.152344 187.765625 285.152344 187.402344 285.152344 C 187.21875 285.152344 186.851562 285.152344 186.671875 285.335938 C 185.390625 286.25 182.46875 287.34375 176.804688 286.796875 C 167.851562 285.703125 163.101562 272.917969 170.042969 264.878906 C 173.882812 260.496094 178.8125 261.59375 182.285156 263.417969 C 185.390625 265.0625 189.046875 265.0625 192.152344 263.417969 C 195.804688 261.59375 200.738281 260.316406 204.390625 264.878906 C 211.699219 272.917969 207.132812 285.703125 197.996094 286.796875 Z M 197.996094 286.796875 " fill-opacity="1" fill-rule="nonzero"/><path fill="#2d2c3f" d="M 188.132812 173.011719 C 178.082031 171.183594 161.273438 173.375 161.273438 192.007812 C 161.273438 210.636719 178.996094 217.578125 189.957031 217.394531 C 201.101562 217.210938 213.710938 209.175781 213.710938 188.71875 C 213.710938 168.261719 188.132812 173.011719 188.132812 173.011719 Z M 188.132812 173.011719 " fill-opacity="1" fill-rule="nonzero"/><path fill="#1c1c2c" d="M 208.226562 205.886719 C 208.226562 205.886719 211.699219 201.136719 212.429688 194.378906 C 212.429688 194.378906 208.777344 196.207031 206.765625 196.390625 C 206.765625 196.390625 203.476562 187.804688 195.441406 192.007812 C 188.863281 195.476562 189.777344 205.523438 200.371094 206.617188 C 199.09375 207.53125 196.535156 209.175781 192.882812 210.085938 C 189.59375 210.820312 185.9375 210.820312 182.652344 210.085938 C 178.8125 209.175781 176.4375 207.714844 175.160156 206.617188 C 185.757812 205.523438 186.671875 195.476562 180.09375 192.007812 C 172.238281 187.804688 168.765625 196.390625 168.765625 196.390625 C 166.574219 196.207031 163.101562 194.378906 163.101562 194.378906 C 163.832031 201.320312 167.304688 205.886719 167.304688 205.886719 C 167.851562 206.070312 168.402344 206.070312 168.949219 206.253906 L 166.9375 206.433594 C 170.777344 216.480469 184.113281 216.84375 187.949219 216.664062 C 191.785156 216.84375 205.121094 216.480469 208.960938 206.433594 L 206.949219 206.253906 C 207.132812 206.070312 207.679688 205.886719 208.226562 205.886719 Z M 208.226562 205.886719 " fill-opacity="1" fill-rule="nonzero"/><path fill="#ffffff" d="M 187.582031 231.273438 C 166.027344 231.089844 148.667969 223.238281 148.667969 223.238281 L 152.140625 258.488281 L 187.582031 253.007812 L 223.027344 258.488281 L 226.496094 223.238281 C 226.316406 223.238281 208.960938 231.089844 187.582031 231.273438 Z M 187.582031 231.273438 " fill-opacity="1" fill-rule="nonzero"/><path fill="#ffffff" d="M 188.863281 309.445312 L 156.34375 309.445312 C 152.140625 335.378906 177.535156 343.050781 186.121094 344.878906 L 186.121094 345.425781 C 186.121094 345.425781 186.671875 345.425781 187.582031 345.242188 C 188.496094 345.425781 189.046875 345.425781 189.046875 345.425781 L 189.046875 344.878906 C 197.632812 343.050781 223.027344 335.378906 218.824219 309.445312 Z M 188.863281 309.445312 " fill-opacity="1" fill-rule="nonzero"/><path fill="#ccd0d1" d="M 151.59375 151.824219 L 148.304688 160.773438 C 148.304688 160.773438 140.628906 173.742188 135.878906 179.039062 C 131.128906 184.335938 132.042969 199.496094 141.726562 215.203125 C 151.59375 230.910156 171.324219 227.4375 171.324219 227.4375 C 147.9375 225.976562 138.804688 202.597656 139.535156 187.621094 C 140.265625 172.644531 155.613281 179.222656 155.613281 179.222656 C 154.148438 176.300781 146.660156 172.097656 146.660156 172.097656 C 151.59375 163.878906 161.457031 165.886719 161.457031 165.886719 C 159.996094 164.0625 155.0625 160.226562 155.0625 160.226562 C 164.382812 148.539062 177.351562 163.695312 177.351562 163.695312 C 170.59375 141.78125 151.59375 151.824219 151.59375 151.824219 Z M 151.59375 151.824219 " fill-opacity="1" fill-rule="nonzero"/><path fill="#ccd0d1" d="M 158.535156 140.867188 C 158.535156 140.867188 175.707031 138.492188 174.246094 117.851562 C 172.601562 92.648438 137.890625 92.285156 137.890625 92.285156 C 156.34375 95.207031 168.949219 113.46875 168.035156 122.601562 C 166.9375 131.734375 158.535156 140.867188 158.535156 140.867188 Z M 158.535156 140.867188 " fill-opacity="1" fill-rule="nonzero"/><path fill="#ccd0d1" d="M 101.898438 116.574219 C 101.898438 116.574219 107.746094 124.976562 121.996094 126.621094 C 136.246094 128.265625 145.929688 136.117188 145.929688 136.117188 C 145.929688 136.117188 143.003906 128.265625 123.824219 122.054688 C 100.804688 114.019531 106.464844 97.398438 106.464844 97.398438 C 106.464844 97.398438 98.792969 103.972656 101.898438 116.574219 Z M 101.898438 116.574219 " fill-opacity="1" fill-rule="nonzero"/><path fill="#ccd0d1" d="M 101.167969 169.359375 C 99.890625 175.75 99.890625 184.519531 99.890625 184.519531 L 96.417969 186.890625 C 93.3125 173.195312 97.515625 148.171875 97.515625 148.171875 C 93.675781 153.101562 83.628906 163.332031 83.628906 163.332031 C 82.898438 137.578125 90.023438 118.949219 90.023438 118.949219 C 74.3125 135.386719 73.765625 170.820312 73.765625 170.820312 L 87.101562 164.0625 L 88.378906 194.015625 L 99.339844 187.621094 C 99.339844 187.621094 107.929688 209.355469 122.179688 223.785156 C 136.429688 238.214844 131.679688 259.585938 131.679688 259.585938 C 132.957031 258.488281 143.738281 236.207031 125.648438 218.308594 C 107.5625 200.40625 101.167969 169.359375 101.167969 169.359375 Z M 101.167969 169.359375 " fill-opacity="1" fill-rule="nonzero"/><path fill="#ccd0d1" d="M 111.582031 112.558594 C 136.976562 108.355469 152.871094 142.875 152.871094 142.875 C 152.871094 142.875 155.0625 133.011719 148.121094 121.871094 C 134.234375 100.320312 111.582031 112.558594 111.582031 112.558594 Z M 111.582031 112.558594 " fill-opacity="1" fill-rule="nonzero"/><path fill="#ccd0d1" d="M 238.738281 40.230469 C 214.804688 24.15625 192.332031 22.878906 187.949219 22.695312 C 187.949219 22.695312 187.765625 22.695312 187.582031 22.695312 C 187.402344 22.695312 187.21875 22.695312 187.21875 22.695312 C 182.832031 22.878906 160.363281 24.15625 136.429688 40.230469 C 136.429688 40.230469 84.175781 40.59375 45.628906 23.0625 C 45.628906 23.0625 78.332031 68.539062 130.21875 44.613281 C 130.21875 44.613281 123.824219 51.738281 118.890625 59.042969 C 118.890625 59.042969 156.160156 31.097656 187.402344 30.734375 C 218.640625 30.914062 255.914062 59.042969 255.914062 59.042969 C 250.980469 51.738281 244.585938 44.613281 244.585938 44.613281 C 296.835938 68.539062 329.539062 23.0625 329.539062 23.0625 C 290.988281 40.59375 238.738281 40.230469 238.738281 40.230469 Z M 238.738281 40.230469 " fill-opacity="1" fill-rule="nonzero"/><path fill="#ccd0d1" d="M 239.285156 179.039062 C 234.535156 173.742188 226.863281 160.773438 226.863281 160.773438 L 223.574219 151.824219 C 223.574219 151.824219 204.574219 141.78125 197.632812 163.695312 C 197.632812 163.695312 210.601562 148.539062 219.921875 160.226562 C 219.921875 160.226562 214.988281 164.0625 213.527344 165.886719 C 213.527344 165.886719 223.390625 163.695312 228.324219 172.097656 C 228.324219 172.097656 220.652344 176.300781 219.371094 179.222656 C 219.371094 179.222656 234.71875 172.828125 235.449219 187.621094 C 236.179688 202.417969 227.230469 225.976562 203.660156 227.4375 C 203.660156 227.4375 223.390625 230.910156 233.257812 215.203125 C 243.125 199.496094 243.855469 184.519531 239.285156 179.039062 Z M 239.285156 179.039062 " fill-opacity="1" fill-rule="nonzero"/><path fill="#ccd0d1" d="M 201.101562 117.851562 C 199.640625 138.492188 216.816406 140.867188 216.816406 140.867188 C 216.816406 140.867188 208.226562 131.734375 207.316406 122.601562 C 206.402344 113.46875 219.007812 95.207031 237.460938 92.285156 C 237.277344 92.285156 202.746094 92.648438 201.101562 117.851562 Z M 201.101562 117.851562 " fill-opacity="1" fill-rule="nonzero"/><path fill="#ccd0d1" d="M 251.527344 122.054688 C 232.160156 128.082031 229.421875 136.117188 229.421875 136.117188 C 229.421875 136.117188 239.285156 128.265625 253.355469 126.621094 C 267.605469 124.976562 273.449219 116.574219 273.449219 116.574219 C 276.558594 103.972656 268.882812 97.398438 268.882812 97.398438 C 268.882812 97.398438 274.363281 114.019531 251.527344 122.054688 Z M 251.527344 122.054688 " fill-opacity="1" fill-rule="nonzero"/><path fill="#ccd0d1" d="M 291.71875 163.332031 C 291.71875 163.332031 281.488281 152.921875 277.835938 148.171875 C 277.835938 148.171875 282.039062 173.195312 278.933594 186.890625 L 275.460938 184.519531 C 275.460938 184.519531 275.460938 175.933594 274.183594 169.359375 C 274.183594 169.359375 268.152344 200.589844 250.066406 218.488281 C 231.980469 236.386719 242.757812 258.488281 244.035156 259.765625 C 244.035156 259.765625 239.285156 238.398438 253.539062 223.96875 C 267.789062 209.539062 276.375 187.804688 276.375 187.804688 L 287.335938 194.199219 L 288.613281 164.246094 L 301.953125 171.003906 C 301.953125 171.003906 301.402344 135.570312 285.691406 119.132812 C 285.328125 118.949219 292.453125 137.761719 291.71875 163.332031 Z M 291.71875 163.332031 " fill-opacity="1" fill-rule="nonzero"/><path fill="#ccd0d1" d="M 227.230469 121.871094 C 220.285156 133.011719 222.480469 142.875 222.480469 142.875 C 222.480469 142.875 238.375 108.171875 263.769531 112.558594 C 263.585938 112.558594 240.929688 100.320312 227.230469 121.871094 Z M 227.230469 121.871094 " fill-opacity="1" fill-rule="nonzero"/><path fill="#aaaaaa" d="M 159.8125 232.371094 C 162.738281 232.734375 160.363281 243.328125 160.363281 243.328125 C 160.363281 243.328125 165.113281 234.5625 164.746094 231.089844 C 164.5625 227.621094 154.148438 226.34375 155.0625 235.476562 C 155.246094 235.292969 157.074219 232.003906 159.8125 232.371094 Z M 159.8125 232.371094 " fill-opacity="1" fill-rule="nonzero"/><path fill="#aaaaaa" d="M 176.257812 318.394531 C 174.613281 314.558594 169.496094 317.300781 169.496094 317.300781 C 169.496094 317.300781 173.332031 324.058594 167.488281 325.519531 C 161.640625 326.796875 158.71875 312.734375 158.71875 312.734375 C 156.160156 321.683594 159.996094 330.816406 168.402344 331.546875 C 176.804688 332.277344 177.902344 322.230469 176.257812 318.394531 Z M 176.257812 318.394531 " fill-opacity="1" fill-rule="nonzero"/><path fill="#aaaaaa" d="M 166.574219 248.261719 C 169.496094 253.738281 187.21875 245.703125 187.582031 245.519531 C 187.949219 245.703125 205.671875 253.738281 208.59375 248.261719 L 210.238281 246.25 L 206.949219 231.457031 L 207.496094 229.628906 L 206.585938 229.8125 L 187.582031 232.734375 L 168.582031 229.8125 L 167.667969 229.628906 L 168.21875 231.457031 L 164.929688 246.25 Z M 171.140625 234.746094 C 172.417969 235.109375 174.0625 236.023438 174.429688 237.847656 C 174.429688 237.847656 178.265625 232.1875 181.007812 237.300781 C 181.007812 237.300781 185.027344 233.648438 187.402344 237.117188 C 189.777344 233.648438 193.796875 237.300781 193.796875 237.300781 C 196.535156 232.1875 200.371094 237.847656 200.371094 237.847656 C 200.921875 236.023438 202.382812 235.109375 203.660156 234.746094 C 204.027344 237.484375 204.941406 241.683594 206.402344 244.972656 C 204.574219 245.335938 201.652344 244.972656 200.371094 240.042969 C 200.371094 240.042969 198.910156 244.972656 196.535156 244.789062 C 193.976562 244.605469 193.613281 240.042969 193.613281 240.042969 C 193.613281 240.042969 192.152344 244.425781 189.777344 244.425781 C 187.765625 244.425781 187.402344 241.136719 187.21875 240.222656 L 187.21875 240.042969 C 187.21875 240.042969 187.21875 240.042969 187.21875 240.222656 C 187.21875 240.222656 187.21875 240.042969 187.21875 240.042969 L 187.21875 240.222656 C 187.035156 241.136719 186.671875 244.425781 184.660156 244.425781 C 182.46875 244.425781 180.824219 240.042969 180.824219 240.042969 C 180.824219 240.042969 180.277344 244.605469 177.902344 244.789062 C 175.527344 244.972656 174.0625 240.042969 174.0625 240.042969 C 172.785156 244.972656 169.863281 245.519531 168.035156 244.972656 C 169.863281 241.503906 170.59375 237.484375 171.140625 234.746094 Z M 171.140625 234.746094 " fill-opacity="1" fill-rule="nonzero"/><path fill="#aaaaaa" d="M 210.238281 231.089844 C 210.054688 234.5625 214.621094 243.328125 214.621094 243.328125 C 214.621094 243.328125 212.246094 232.734375 215.171875 232.371094 C 218.09375 232.003906 219.738281 235.476562 219.738281 235.476562 C 220.835938 226.34375 210.421875 227.621094 210.238281 231.089844 Z M 210.238281 231.089844 " fill-opacity="1" fill-rule="nonzero"/><path fill="#aaaaaa" d="M 207.679688 325.519531 C 201.835938 324.238281 205.671875 317.300781 205.671875 317.300781 C 205.671875 317.300781 200.371094 314.558594 198.910156 318.394531 C 197.265625 322.230469 198.363281 332.277344 206.765625 331.726562 C 215.171875 330.996094 219.007812 321.863281 216.449219 312.914062 C 216.265625 312.914062 213.34375 326.980469 207.679688 325.519531 Z M 207.679688 325.519531 " fill-opacity="1" fill-rule="nonzero"/><path fill="#aaaaaa" d="M 195.804688 329.171875 C 195.621094 329.171875 195.441406 328.988281 195.074219 328.988281 L 194.707031 328.988281 C 192.332031 328.804688 188.132812 329.535156 187.582031 329.535156 C 187.035156 329.351562 182.832031 328.804688 180.457031 328.988281 L 180.09375 328.988281 C 179.910156 328.988281 179.546875 328.988281 179.363281 329.171875 L 177.171875 329.535156 L 168.949219 335.199219 L 170.777344 335.929688 C 170.777344 335.929688 171.871094 335.929688 173.515625 335.199219 C 174.0625 339.945312 185.9375 339.214844 187.582031 339.035156 C 189.226562 339.214844 201.101562 339.765625 201.652344 335.199219 C 203.296875 335.929688 204.390625 335.929688 204.390625 335.929688 L 206.21875 335.199219 L 197.996094 329.535156 Z M 193.246094 335.199219 C 193.246094 335.199219 190.871094 336.476562 187.582031 336.476562 C 184.296875 336.476562 181.921875 335.199219 181.921875 335.199219 C 179.179688 338.484375 175.890625 335.5625 174.976562 334.648438 C 176.257812 333.738281 177.902344 332.457031 179.546875 330.449219 C 180.457031 331.179688 181.921875 332.457031 181.738281 334.101562 C 181.738281 334.101562 183.929688 332.09375 187.582031 332.09375 C 191.238281 332.09375 193.429688 334.101562 193.429688 334.101562 C 193.246094 332.457031 194.707031 331.179688 195.621094 330.449219 C 197.265625 332.457031 198.726562 333.917969 200.191406 334.648438 C 199.277344 335.5625 195.988281 338.484375 193.246094 335.199219 Z M 193.246094 335.199219 " fill-opacity="1" fill-rule="nonzero"/><path fill="#15141e" d="M 162.738281 115.113281 C 164.929688 121.324219 164.746094 131.734375 158.351562 140.683594 C 164.382812 139.039062 168.949219 133.925781 170.042969 127.714844 C 170.957031 122.417969 170.59375 117.488281 168.765625 112.738281 C 167.121094 107.992188 164.199219 104.15625 161.273438 101.050781 C 155.246094 94.839844 147.023438 91.734375 138.4375 92.101562 C 138.4375 92.285156 157.804688 100.683594 162.738281 115.113281 Z M 162.738281 115.113281 " fill-opacity="1" fill-rule="nonzero"/><path fill="#15141e" d="M 121.8125 219.039062 C 105.554688 204.242188 101.714844 182.328125 101.714844 181.960938 L 100.4375 174.105469 L 96.050781 180.863281 C 93.859375 184.152344 92.035156 188.171875 90.753906 191.824219 C 87.832031 173.742188 92.945312 160.042969 92.945312 159.859375 L 97.148438 149.085938 L 88.015625 156.207031 C 83.265625 160.042969 79.246094 164.609375 76.503906 168.628906 C 75.589844 143.421875 89.839844 119.496094 89.839844 119.316406 C 82.351562 125.160156 76.871094 133.011719 73.945312 141.960938 C 71.023438 151.460938 68.648438 164.425781 70.839844 179.039062 L 72.484375 189.265625 L 76.871094 179.953125 C 76.871094 179.953125 79.425781 174.65625 83.996094 168.992188 C 82.714844 177.761719 82.351562 190.910156 87.464844 205.703125 L 91.667969 217.578125 L 93.675781 205.15625 C 93.675781 204.972656 94.773438 198.398438 97.515625 191.640625 C 100.253906 200.226562 106.101562 213.558594 117.429688 223.96875 C 124.003906 229.996094 128.207031 237.117188 130.035156 245.335938 C 131.3125 251.546875 130.949219 260.679688 130.949219 260.679688 C 136.613281 251.183594 136.613281 239.128906 130.582031 229.628906 C 128.574219 225.976562 125.648438 222.507812 121.8125 219.039062 Z M 121.8125 219.039062 " fill-opacity="1" fill-rule="nonzero"/><g clip-path="url(#8f39c45a80)"><path fill="#15141e" d="M 335.933594 143.972656 C 337.394531 145.433594 338.125 146.527344 338.125 146.527344 L 347.992188 159.3125 L 343.605469 143.789062 C 338.671875 126.253906 330.453125 110.914062 325.152344 101.964844 C 326.617188 102.511719 327.347656 102.875 327.347656 102.875 L 339.039062 108.171875 L 331.367188 98.128906 C 324.421875 89.179688 317.296875 83.515625 312.546875 80.230469 C 312.367188 80.230469 312.183594 80.046875 312.183594 80.046875 C 323.144531 67.261719 328.625 52.101562 331.367188 41.144531 C 334.105469 30.367188 338.125 11.371094 338.125 11.371094 L 329.539062 16.851562 C 329.355469 16.851562 320.039062 22.695312 303.960938 28.175781 C 289.34375 33.105469 266.144531 38.585938 238.375 36.941406 C 237.460938 36.394531 236.546875 35.847656 235.632812 35.300781 C 234.355469 34.570312 232.890625 33.65625 231.429688 32.925781 C 218.277344 25.984375 206.035156 21.601562 194.527344 19.957031 C 192.152344 19.589844 189.957031 19.410156 187.582031 19.410156 C 185.574219 19.410156 183.5625 19.589844 181.371094 19.773438 C 169.679688 21.234375 157.074219 25.617188 143.738281 32.742188 C 142.09375 33.65625 140.8125 34.386719 139.535156 35.117188 C 138.621094 35.664062 137.707031 36.210938 136.792969 36.761719 C 109.023438 38.402344 85.820312 32.925781 71.207031 27.992188 C 55.128906 22.695312 45.8125 16.667969 45.628906 16.667969 L 37.042969 11.191406 C 37.042969 11.191406 41.0625 30.183594 43.800781 40.960938 C 46.542969 51.917969 52.207031 67.261719 62.984375 79.863281 C 62.800781 79.863281 62.621094 80.046875 62.621094 80.046875 C 57.867188 83.335938 50.742188 88.996094 43.800781 97.945312 L 35.945312 107.992188 L 47.636719 102.695312 C 47.636719 102.695312 48.367188 102.328125 49.832031 101.78125 C 44.53125 110.730469 36.3125 126.074219 31.378906 143.605469 L 26.992188 159.128906 L 36.859375 146.34375 C 36.859375 146.34375 37.773438 145.25 39.050781 143.789062 C 38.320312 146.527344 37.40625 149.816406 36.675781 153.46875 C 34.117188 165.523438 31.925781 183.96875 35.761719 203.695312 L 38.6875 218.671875 L 41.972656 203.878906 C 41.972656 203.878906 42.523438 201.320312 43.4375 198.214844 C 43.800781 199.675781 44.167969 201.136719 44.714844 202.78125 C 47.457031 211.914062 53.300781 225.429688 65.359375 238.03125 L 73.214844 246.25 L 70.839844 235.109375 C 70.839844 235.109375 69.925781 231.089844 69.378906 226.160156 C 77.78125 230.910156 94.957031 242.78125 105.003906 264.515625 L 110.667969 276.570312 L 111.214844 263.417969 C 111.214844 263.054688 111.398438 258.488281 110.851562 252.644531 C 116.878906 258.488281 126.015625 268.535156 131.859375 280.953125 C 135.515625 288.625 137.523438 297.574219 137.523438 306.523438 C 137.523438 317.664062 139.535156 338.304688 152.6875 351.636719 C 160.542969 359.488281 173.699219 363.507812 186.851562 363.691406 C 186.851562 363.691406 187.035156 363.691406 187.035156 363.691406 C 187.035156 363.691406 187.21875 363.691406 187.21875 363.691406 C 200.371094 363.507812 214.257812 359.488281 222.113281 351.636719 C 235.449219 338.304688 237.460938 317.664062 237.277344 306.523438 C 237.277344 297.574219 239.105469 288.625 242.941406 280.953125 C 248.785156 268.535156 257.921875 258.488281 263.949219 252.644531 C 263.402344 258.488281 263.585938 263.054688 263.585938 263.417969 L 264.132812 276.570312 L 269.796875 264.515625 C 279.84375 242.964844 297.019531 231.089844 305.421875 226.160156 C 304.691406 231.089844 303.960938 235.109375 303.960938 235.109375 L 301.585938 246.25 L 309.441406 238.03125 C 321.5 225.429688 327.347656 211.914062 330.085938 202.78125 C 330.636719 201.136719 331 199.675781 331.367188 198.214844 C 332.28125 201.503906 332.828125 203.878906 332.828125 203.878906 L 336.117188 218.671875 L 339.039062 203.695312 C 342.875 183.96875 340.683594 165.523438 338.125 153.46875 C 337.578125 150 336.664062 146.710938 335.933594 143.972656 Z M 324.972656 39.5 C 323.144531 46.441406 320.222656 55.207031 315.472656 63.609375 C 311.453125 70.730469 304.691406 75.480469 296.835938 77.488281 C 296.652344 77.488281 296.472656 77.671875 296.289062 77.671875 C 294.460938 78.21875 291.71875 78.769531 288.796875 78.949219 C 291.355469 77.488281 294.277344 75.480469 297.382812 72.921875 C 305.058594 66.714844 315.289062 56.121094 325.152344 38.585938 C 325.152344 38.953125 325.152344 39.132812 324.972656 39.5 Z M 59.511719 63.609375 C 54.761719 55.023438 51.839844 46.257812 50.011719 39.5 C 50.011719 39.316406 49.832031 38.953125 49.832031 38.769531 C 59.511719 56.121094 69.925781 66.894531 77.601562 73.105469 C 80.707031 75.664062 83.628906 77.671875 86.1875 79.132812 C 83.265625 78.949219 80.707031 78.21875 78.695312 77.855469 C 78.515625 77.855469 78.332031 77.671875 78.148438 77.671875 C 70.292969 75.664062 63.53125 70.730469 59.511719 63.609375 Z M 334.835938 187.804688 C 334.289062 186.527344 333.742188 185.25 333.191406 184.152344 L 327.347656 172.28125 L 326.980469 185.429688 C 326.980469 185.429688 326.796875 192.007812 323.875 201.136719 C 321.867188 207.347656 318.394531 215.933594 312.183594 224.882812 C 312.367188 223.601562 312.367188 222.324219 312.546875 221.046875 L 312.914062 215.75 L 308.164062 217.757812 C 307.796875 217.941406 300.671875 220.863281 291.722656 227.804688 C 285.691406 232.554688 277.835938 239.675781 270.894531 249.902344 C 271.074219 248.261719 271.441406 246.617188 271.625 245.15625 L 273.449219 236.570312 L 266.507812 241.867188 C 265.777344 242.414062 247.507812 256.660156 237.277344 278.214844 C 233.257812 286.796875 231.066406 296.660156 231.066406 306.523438 C 231.066406 314.742188 229.785156 335.015625 217.730469 347.070312 C 211.152344 353.644531 198.363281 357.113281 187.035156 357.113281 C 175.707031 357.113281 163.832031 353.644531 157.257812 347.070312 C 145.199219 335.015625 143.917969 314.558594 143.917969 306.523438 C 143.917969 296.660156 141.726562 286.796875 137.707031 278.214844 C 127.476562 256.660156 109.207031 242.414062 108.476562 241.867188 L 101.535156 236.570312 L 103.359375 245.15625 C 103.726562 246.800781 103.910156 248.441406 104.089844 249.902344 C 97.332031 239.859375 89.476562 232.554688 83.265625 227.804688 C 74.3125 220.863281 67.003906 217.757812 66.820312 217.757812 L 62.070312 215.75 L 62.4375 221.046875 C 62.621094 222.324219 62.621094 223.601562 62.800781 224.882812 C 56.589844 216.113281 52.9375 207.53125 51.109375 201.136719 C 48.367188 192.007812 48.003906 185.429688 48.003906 185.429688 L 47.636719 172.28125 L 41.792969 184.152344 C 41.242188 185.25 40.695312 186.527344 40.148438 187.804688 C 39.417969 175.019531 41.0625 163.332031 42.886719 155.113281 C 45.445312 142.691406 49.101562 134.65625 49.101562 134.472656 L 53.851562 123.878906 L 44.347656 130.636719 C 43.4375 131.1875 42.523438 131.917969 41.792969 132.648438 C 49.464844 112.921875 59.878906 97.945312 60.0625 97.761719 L 65.542969 90.089844 L 57.320312 92.648438 C 60.792969 89.542969 63.898438 87.167969 66.273438 85.527344 C 69.378906 83.515625 73.398438 82.785156 77.234375 83.882812 C 82.898438 85.527344 90.753906 86.621094 97.332031 84.066406 C 97.332031 84.066406 97.515625 84.066406 97.515625 84.066406 L 97.515625 83.882812 C 98.0625 83.699219 98.609375 83.332031 99.160156 83.152344 L 105.371094 80.046875 L 98.792969 77.488281 C 98.792969 77.488281 96.417969 76.578125 93.496094 75.113281 C 96.234375 75.113281 98.609375 74.75 100.804688 74.019531 C 108.476562 71.828125 113.589844 64.886719 113.773438 57.035156 C 103.359375 74.019531 80.339844 66.714844 80.15625 66.53125 L 79.425781 66.164062 C 71.386719 59.042969 60.609375 46.804688 50.742188 26.53125 C 55.128906 28.722656 61.339844 31.28125 69.011719 33.835938 C 82.351562 38.402344 102.628906 43.335938 126.929688 43.335938 C 127.660156 43.335938 128.390625 43.335938 129.304688 43.335938 C 126.378906 46.621094 123.824219 50.457031 122.179688 54.660156 C 122.359375 54.476562 144.46875 37.125 168.582031 29.273438 C 180.824219 25.253906 194.160156 25.253906 206.402344 29.273438 C 230.699219 37.125 252.625 54.476562 252.804688 54.660156 C 250.980469 50.457031 248.605469 46.621094 245.679688 43.335938 C 246.410156 43.335938 247.144531 43.335938 248.054688 43.335938 C 272.539062 43.335938 292.632812 38.402344 305.972656 33.835938 C 313.644531 31.28125 319.671875 28.542969 324.242188 26.53125 C 314.558594 46.804688 303.777344 59.042969 295.558594 66.164062 L 294.828125 66.53125 C 294.644531 66.53125 271.625 74.019531 261.210938 57.035156 C 261.394531 64.886719 266.507812 72.011719 274.183594 74.019531 C 276.375 74.566406 278.933594 74.933594 281.488281 75.113281 C 278.382812 76.578125 276.191406 77.488281 276.191406 77.488281 L 269.613281 80.046875 L 275.824219 83.152344 C 276.375 83.515625 276.921875 83.699219 277.46875 83.882812 L 277.46875 84.066406 C 277.46875 84.066406 277.46875 84.066406 277.652344 84.066406 C 284.230469 86.621094 292.269531 85.34375 297.75 83.882812 C 301.585938 82.785156 305.421875 83.515625 308.710938 85.527344 C 311.085938 87.167969 314.191406 89.359375 317.664062 92.648438 L 309.441406 90.089844 L 314.921875 97.761719 C 315.105469 97.945312 325.519531 112.921875 333.191406 132.648438 C 332.28125 131.917969 331.546875 131.367188 330.636719 130.636719 L 321.136719 123.878906 L 325.886719 134.472656 C 325.886719 134.472656 329.539062 142.691406 332.097656 155.113281 C 333.921875 163.332031 335.386719 175.019531 334.835938 187.804688 Z M 334.835938 187.804688 " fill-opacity="1" fill-rule="nonzero"/></g><path fill="#15141e" d="M 243.488281 179.953125 C 242.210938 175.386719 240.019531 172.097656 237.09375 170.820312 C 236.179688 168.082031 234.171875 163.332031 229.605469 160.410156 C 229.96875 158.398438 229.785156 156.390625 229.238281 154.566406 C 228.324219 151.640625 229.785156 148.539062 232.527344 147.441406 C 234.71875 148.355469 237.460938 149.085938 240.382812 149.085938 C 242.210938 149.085938 244.21875 148.902344 246.230469 148.171875 C 252.441406 146.527344 256.460938 141.960938 258.289062 135.203125 C 258.835938 133.195312 259.019531 131.1875 259.199219 129.542969 C 261.941406 128.996094 264.5 128.265625 266.691406 127.351562 C 268.882812 130.820312 271.441406 136.664062 269.980469 142.511719 C 267.605469 152.191406 260.84375 154.566406 254.269531 158.398438 L 257.007812 158.582031 C 262.488281 158.949219 267.96875 156.757812 271.441406 152.554688 C 273.449219 150 274.546875 147.257812 275.277344 143.242188 C 276.191406 138.855469 275.644531 134.65625 274.546875 131.1875 C 273.449219 127.167969 274 122.96875 276.191406 119.496094 C 276.375 119.316406 276.375 119.132812 276.558594 118.949219 C 279.84375 113.289062 278.199219 105.980469 273.085938 101.964844 L 270.894531 100.136719 C 271.074219 100.683594 274 110.363281 270.894531 116.210938 C 268.882812 120.046875 263.949219 122.417969 256.824219 123.515625 C 246.410156 125.339844 237.460938 128.996094 230.882812 133.378906 C 233.804688 127.167969 239.105469 122.054688 246.59375 118.035156 C 255 113.652344 263.402344 112.375 263.402344 112.375 C 263.402344 112.375 253.171875 107.261719 243.671875 112.191406 C 231.25 118.765625 223.757812 128.628906 221.929688 141.050781 C 220.46875 142.875 219.371094 144.519531 218.460938 146.34375 C 215.535156 145.980469 211.882812 146.34375 207.316406 147.625 C 200.371094 149.632812 195.074219 154.566406 192.152344 162.054688 C 191.421875 163.878906 190.871094 165.707031 190.507812 167.167969 C 190.140625 168.628906 188.863281 169.722656 187.402344 169.90625 C 185.9375 169.722656 184.476562 168.628906 184.296875 167.167969 C 183.929688 165.707031 183.382812 163.878906 182.652344 162.054688 C 179.726562 154.746094 174.429688 149.816406 167.488281 147.625 C 162.917969 146.34375 159.265625 145.980469 156.34375 146.34375 C 155.613281 144.703125 154.332031 142.875 152.871094 141.050781 C 151.042969 128.628906 143.554688 118.765625 131.128906 112.191406 C 121.628906 107.261719 111.398438 112.375 111.398438 112.375 C 111.398438 112.375 119.804688 113.46875 128.207031 118.035156 C 135.699219 121.871094 140.8125 126.984375 143.917969 133.378906 C 137.160156 128.996094 128.390625 125.339844 117.976562 123.515625 C 111.035156 122.238281 106.101562 120.046875 103.910156 116.210938 C 100.621094 110.363281 103.726562 100.683594 103.910156 100.136719 L 101.714844 101.964844 C 96.601562 105.980469 94.957031 113.289062 98.246094 118.949219 C 98.429688 119.132812 98.429688 119.316406 98.609375 119.496094 C 100.804688 122.96875 101.351562 127.167969 100.253906 131.1875 C 99.160156 134.839844 98.792969 138.855469 99.523438 143.242188 C 100.253906 147.078125 101.351562 150 103.359375 152.554688 C 106.832031 156.757812 112.3125 159.128906 117.792969 158.582031 L 120.535156 158.398438 C 114.140625 154.566406 107.195312 152.007812 104.820312 142.511719 C 103.359375 136.664062 106.101562 131.003906 108.109375 127.351562 C 110.304688 128.265625 112.859375 128.996094 115.601562 129.542969 C 115.601562 131.1875 115.964844 133.195312 116.515625 135.203125 C 118.339844 141.960938 122.359375 146.34375 128.574219 148.171875 C 130.765625 148.71875 132.59375 149.085938 134.417969 149.085938 C 137.34375 149.085938 139.898438 148.355469 142.273438 147.441406 C 145.015625 148.71875 146.476562 151.824219 145.5625 154.566406 C 145.015625 156.390625 144.832031 158.398438 145.199219 160.410156 C 140.8125 163.332031 138.621094 168.082031 137.707031 170.820312 C 134.785156 172.097656 132.59375 175.386719 131.3125 179.953125 C 129.667969 185.980469 129.851562 193.46875 131.496094 200.773438 C 132.226562 203.878906 133.503906 207.53125 135.332031 211.367188 C 138.621094 229.082031 147.9375 280.769531 148.304688 303.234375 C 148.488281 314.742188 149.582031 327.890625 155.246094 336.660156 C 160.726562 345.242188 168.582031 349.261719 186.304688 349.261719 C 186.488281 349.261719 186.488281 349.261719 186.671875 349.261719 C 186.671875 349.261719 186.851562 349.261719 186.851562 349.261719 C 208.777344 349.261719 213.34375 345.242188 219.007812 336.660156 C 224.671875 327.890625 225.765625 314.925781 225.949219 303.234375 C 226.5 280.769531 235.632812 229.082031 238.921875 211.367188 C 240.929688 207.53125 242.027344 203.878906 242.757812 200.773438 C 245.132812 193.46875 245.132812 185.796875 243.488281 179.953125 Z M 232.890625 139.953125 C 236.910156 137.03125 243.488281 133.378906 252.988281 131.003906 C 252.625 135.023438 250.796875 140.5 244.949219 142.144531 C 239.105469 143.605469 235.085938 141.78125 232.890625 139.953125 C 232.710938 139.953125 232.710938 139.953125 232.890625 139.953125 Z M 130.398438 141.960938 C 124.554688 140.320312 122.726562 134.839844 122.359375 130.820312 C 131.859375 133.195312 138.4375 136.847656 142.457031 139.769531 C 140.082031 141.78125 136.0625 143.605469 130.398438 141.960938 Z M 187.035156 176.117188 C 187.21875 176.117188 187.402344 176.117188 187.582031 176.117188 C 187.765625 176.117188 187.949219 176.117188 188.132812 176.117188 C 191.96875 175.75 207.496094 175.386719 210.238281 185.613281 C 211.152344 188.902344 210.96875 193.648438 209.691406 198.214844 C 208.59375 198.398438 207.132812 198.582031 205.671875 198.765625 C 205.671875 198.582031 205.671875 198.398438 205.671875 198.035156 C 205.671875 194.378906 202.382812 191.277344 198.546875 191.824219 C 195.621094 192.1875 193.246094 194.5625 192.882812 197.484375 C 192.515625 200.957031 194.890625 203.878906 198.179688 204.425781 C 200.191406 205.15625 202.382812 205.339844 204.390625 205.339844 C 205.121094 205.339844 205.851562 205.339844 206.585938 205.339844 C 206.21875 205.886719 205.851562 206.433594 205.488281 206.984375 C 201.652344 212.097656 194.707031 214.652344 187.949219 214.652344 C 181.007812 214.652344 173.699219 212.097656 169.679688 206.984375 C 169.3125 206.433594 168.949219 205.886719 168.582031 205.339844 C 169.3125 205.339844 170.042969 205.339844 170.777344 205.339844 C 172.785156 205.339844 174.976562 205.15625 176.988281 204.425781 C 180.09375 203.878906 182.652344 200.957031 182.285156 197.484375 C 181.921875 194.5625 179.546875 192.1875 176.621094 191.824219 C 172.785156 191.457031 169.496094 194.378906 169.496094 198.035156 C 169.496094 198.214844 169.496094 198.398438 169.496094 198.765625 C 168.035156 198.765625 166.574219 198.398438 165.476562 198.214844 C 164.199219 193.648438 164.015625 188.902344 164.929688 185.613281 C 167.667969 175.203125 183.015625 175.75 187.035156 176.117188 Z M 155.429688 233.648438 C 155.429688 231.273438 157.804688 229.449219 160.179688 229.996094 C 162.007812 230.542969 163.285156 232.371094 162.917969 234.378906 C 161.457031 240.589844 159.082031 247.164062 156.890625 252.09375 C 155.792969 244.972656 155.429688 238.582031 155.429688 233.648438 Z M 166.027344 328.621094 C 163.652344 328.074219 161.824219 326.613281 160.726562 324.605469 C 159.082031 321.316406 158.71875 316.933594 158.898438 313.097656 C 163.101562 317.847656 168.21875 318.394531 170.957031 317.480469 C 171.871094 317.300781 173.332031 317.117188 174.0625 317.664062 C 174.792969 318.210938 175.160156 319.855469 174.976562 321.863281 C 174.976562 323.691406 174.0625 325.335938 172.785156 326.613281 L 172.601562 326.613281 C 170.777344 328.441406 168.402344 329.171875 166.027344 328.621094 Z M 187.582031 236.386719 C 187.582031 236.570312 187.582031 236.570312 187.582031 236.570312 L 187.582031 236.386719 C 187.765625 235.476562 188.316406 234.195312 190.324219 234.195312 C 193.066406 234.195312 193.976562 236.207031 193.976562 236.207031 C 193.976562 236.207031 194.160156 233.648438 196.902344 233.648438 C 199.640625 233.648438 200.554688 236.386719 200.554688 236.386719 C 201.285156 233.832031 203.660156 232.917969 205.671875 232.554688 C 206.402344 236.753906 207.496094 240.953125 208.960938 244.972656 C 208.046875 246.070312 206.765625 247.164062 205.304688 247.164062 C 201.46875 247.164062 200.554688 240.773438 200.554688 240.773438 C 200.554688 240.773438 199.457031 245.519531 196.902344 245.519531 C 194.34375 245.519531 193.976562 240.953125 193.976562 240.953125 C 193.976562 240.953125 193.066406 244.972656 190.507812 244.972656 C 188.863281 244.972656 188.132812 243.328125 187.949219 242.234375 L 187.949219 241.136719 C 187.949219 241.136719 187.949219 241.320312 187.949219 241.867188 C 187.949219 241.503906 187.949219 241.136719 187.949219 241.136719 L 187.949219 242.234375 C 187.765625 243.328125 187.035156 244.972656 185.390625 244.972656 C 182.832031 244.972656 181.921875 240.953125 181.921875 240.953125 C 181.921875 240.953125 181.371094 245.703125 178.996094 245.519531 C 176.4375 245.335938 175.34375 240.773438 175.34375 240.773438 C 175.34375 240.773438 174.429688 246.980469 170.59375 247.164062 C 169.132812 247.164062 167.851562 246.25 166.9375 244.972656 C 168.21875 240.953125 169.496094 236.570312 170.226562 232.554688 C 172.238281 232.917969 174.613281 233.832031 175.34375 236.386719 C 175.34375 236.386719 176.257812 233.648438 178.996094 233.648438 C 181.738281 233.648438 181.921875 236.207031 181.921875 236.207031 C 181.921875 236.207031 182.652344 234.195312 185.574219 234.195312 C 186.851562 234.015625 187.402344 235.476562 187.582031 236.386719 L 187.582031 236.570312 C 187.582031 236.570312 187.582031 236.386719 187.582031 236.386719 Z M 184.296875 258.488281 C 186.121094 259.402344 189.046875 259.402344 190.691406 258.488281 C 199.640625 254.105469 210.96875 260.132812 211.699219 270.90625 C 212.066406 277.117188 211.335938 283.144531 208.046875 286.980469 C 204.574219 291.179688 196.171875 292.460938 187.21875 290.816406 C 178.265625 292.640625 170.410156 291.363281 166.9375 286.980469 C 163.652344 282.960938 162.917969 276.933594 163.285156 270.90625 C 164.015625 260.132812 175.34375 253.921875 184.296875 258.488281 Z M 200.738281 334.832031 C 200.738281 334.832031 197.632812 339.582031 193.246094 336.109375 C 193.246094 336.109375 190.507812 337.207031 187.21875 337.207031 C 183.929688 337.207031 182.101562 336.109375 182.101562 336.109375 C 177.71875 339.582031 174.613281 334.832031 174.613281 334.832031 C 173.152344 335.378906 171.871094 335.199219 170.777344 334.832031 C 173.152344 334.285156 175.160156 333.1875 177.171875 331.726562 L 177.351562 331.546875 C 178.082031 330.996094 178.632812 330.265625 179.179688 329.535156 C 179.363281 329.535156 179.726562 329.535156 179.910156 329.535156 C 181.738281 329.535156 182.101562 332.277344 182.101562 332.277344 C 182.101562 332.277344 185.207031 330.632812 187.765625 330.632812 C 190.324219 330.632812 193.613281 332.277344 193.613281 332.277344 C 193.613281 332.277344 193.976562 329.535156 195.804688 329.535156 C 196.171875 329.535156 196.351562 329.535156 196.71875 329.535156 C 197.265625 330.265625 197.816406 330.816406 198.546875 331.546875 L 198.726562 331.726562 C 200.554688 333.371094 202.746094 334.46875 205.121094 334.832031 C 203.476562 335.199219 202.199219 335.378906 200.738281 334.832031 Z M 214.441406 324.605469 C 213.34375 326.613281 211.515625 328.074219 209.140625 328.621094 C 206.765625 329.171875 204.210938 328.441406 202.382812 326.796875 L 202.199219 326.796875 C 200.921875 325.699219 200.007812 323.875 200.007812 322.046875 C 200.007812 320.039062 200.371094 318.394531 200.921875 317.847656 C 201.652344 317.300781 203.113281 317.480469 204.027344 317.664062 C 206.765625 318.394531 211.882812 318.03125 216.085938 313.28125 C 216.449219 316.933594 216.085938 321.316406 214.441406 324.605469 Z M 218.277344 252.09375 C 216.085938 247.164062 213.710938 240.589844 212.246094 234.378906 C 211.882812 232.371094 212.976562 230.542969 214.988281 229.996094 C 217.363281 229.449219 219.738281 231.089844 219.738281 233.648438 C 219.738281 238.582031 219.371094 244.972656 218.277344 252.09375 Z M 227.046875 217.394531 C 215.535156 227.074219 192.332031 226.527344 187.949219 226.527344 C 187.949219 226.527344 187.765625 226.527344 187.582031 226.527344 C 187.402344 226.527344 187.21875 226.527344 187.21875 226.527344 C 182.832031 226.707031 159.632812 227.074219 148.121094 217.394531 C 137.34375 207.347656 135.515625 189.996094 137.890625 181.59375 C 138.804688 178.308594 140.265625 177.03125 140.996094 176.480469 C 145.746094 172.644531 154.882812 177.761719 154.882812 177.761719 C 154.882812 177.761719 151.226562 171.914062 145.199219 170.453125 C 146.113281 168.628906 147.574219 166.617188 149.582031 165.523438 C 152.324219 164.0625 157.257812 164.246094 161.273438 165.707031 L 160.179688 163.695312 C 158.351562 160.589844 155.0625 158.765625 151.59375 158.582031 C 151.410156 156.9375 151.957031 155.296875 153.054688 154.382812 C 155.246094 152.191406 159.996094 152.007812 165.84375 153.652344 C 170.957031 155.113281 174.613281 158.582031 176.804688 164.0625 C 177.351562 165.15625 177.535156 166.253906 177.902344 167.347656 C 178.265625 168.628906 177.351562 170.089844 176.074219 170.273438 C 166.757812 171.914062 160.726562 176.664062 158.898438 183.96875 C 157.074219 191.09375 158.351562 202.417969 164.746094 210.820312 C 169.863281 217.394531 179.179688 220.863281 187.949219 220.863281 C 196.71875 220.863281 205.488281 217.394531 210.601562 210.820312 C 216.996094 202.597656 218.460938 191.09375 216.449219 183.96875 C 214.441406 176.664062 208.59375 171.914062 199.277344 170.273438 C 197.996094 170.089844 197.082031 168.628906 197.449219 167.347656 C 197.632812 166.253906 197.996094 165.15625 198.546875 164.0625 C 200.738281 158.582031 204.574219 155.113281 209.507812 153.652344 C 215.355469 152.007812 220.105469 152.191406 222.296875 154.382812 C 223.390625 155.476562 223.941406 156.9375 223.757812 158.582031 C 220.285156 158.765625 216.996094 160.589844 215.171875 163.695312 L 214.074219 165.523438 C 218.09375 164.0625 223.210938 163.878906 225.765625 165.339844 C 227.960938 166.617188 229.238281 168.628906 230.152344 170.273438 C 224.121094 171.914062 220.46875 177.578125 220.46875 177.578125 C 220.46875 177.578125 229.605469 172.464844 234.355469 176.300781 C 235.085938 176.847656 236.546875 178.125 237.460938 181.414062 C 239.652344 189.996094 238.007812 207.164062 227.046875 217.394531 Z M 227.046875 217.394531 " fill-opacity="1" fill-rule="nonzero"/><path fill="#15141e" d="M 216.816406 140.867188 C 210.421875 131.734375 210.421875 121.507812 212.429688 115.296875 C 217.363281 100.683594 236.730469 92.464844 236.730469 92.285156 C 228.140625 91.917969 219.921875 95.207031 213.890625 101.234375 C 210.96875 104.335938 208.046875 108.171875 206.402344 112.921875 C 204.574219 117.671875 204.210938 122.785156 205.121094 127.898438 C 206.21875 134.109375 210.785156 139.039062 216.816406 140.867188 Z M 216.816406 140.867188 " fill-opacity="1" fill-rule="nonzero"/><path fill="#15141e" d="M 285.507812 119.316406 C 285.691406 119.496094 299.757812 143.421875 298.847656 168.628906 C 296.105469 164.609375 292.269531 160.042969 287.335938 156.207031 L 278.199219 149.085938 L 282.402344 159.859375 C 282.402344 160.042969 287.519531 173.742188 284.59375 191.824219 C 283.316406 188.171875 281.671875 184.335938 279.296875 180.863281 L 274.914062 174.105469 L 273.449219 181.960938 C 273.449219 182.144531 269.433594 204.242188 253.355469 219.039062 C 249.519531 222.507812 246.59375 225.976562 244.585938 229.449219 C 238.554688 238.945312 238.554688 250.816406 244.21875 260.496094 C 244.21875 260.496094 243.855469 251.363281 245.132812 245.15625 C 246.960938 236.9375 251.160156 229.8125 257.738281 223.785156 C 269.066406 213.375 274.914062 200.042969 277.652344 191.457031 C 280.394531 198.214844 281.488281 204.972656 281.488281 204.972656 L 283.5 217.394531 L 287.703125 205.523438 C 292.816406 190.910156 292.453125 177.761719 291.171875 168.8125 C 295.738281 174.472656 298.296875 179.769531 298.296875 179.769531 L 302.683594 189.085938 L 304.328125 178.855469 C 306.519531 164.246094 304.144531 151.277344 301.222656 141.78125 C 298.480469 133.011719 292.816406 124.976562 285.507812 119.316406 Z M 285.507812 119.316406 " fill-opacity="1" fill-rule="nonzero"/></svg>