<svg xmlns="http://www.w3.org/2000/svg" xmlns:xlink="http://www.w3.org/1999/xlink" width="500" zoomAndPan="magnify" viewBox="0 0 375 374.999991" height="500" preserveAspectRatio="xMidYMid meet" version="1.0"><defs><clipPath id="a763640417"><path d="M 0 84 L 375 84 L 375 291.703125 L 0 291.703125 Z M 0 84 " clip-rule="nonzero"/></clipPath></defs><path fill="#ffffff" d="M 16.691406 262.738281 C 16.691406 262.738281 18.347656 277.972656 31.640625 287.660156 C 31.640625 287.660156 27.402344 278.050781 27.382812 272.691406 C 27.359375 267.332031 26.242188 263.554688 16.691406 262.738281 Z M 358.304688 262.738281 C 358.304688 262.738281 356.648438 277.972656 343.359375 287.660156 C 343.359375 287.660156 347.597656 278.050781 347.613281 272.691406 C 347.636719 267.332031 348.757812 263.554688 358.304688 262.738281 Z M 27.1875 249.652344 C 27.1875 249.652344 28.972656 266.070312 43.296875 276.511719 C 43.296875 276.511719 38.730469 266.15625 38.707031 260.378906 C 38.6875 254.601562 37.476562 250.53125 27.1875 249.652344 Z M 347.808594 249.652344 C 347.808594 249.652344 346.027344 266.070312 331.699219 276.511719 C 331.699219 276.511719 336.269531 266.15625 336.289062 260.378906 C 336.3125 254.601562 337.519531 250.53125 347.808594 249.652344 Z M 329.972656 242.453125 C 329.972656 242.453125 330.40625 259.363281 317.285156 271.921875 C 317.285156 271.921875 320.511719 260.78125 319.742188 254.914062 C 318.972656 249.046875 319.644531 244.75 329.972656 242.453125 Z M 45.023438 242.453125 C 45.023438 242.453125 44.59375 259.367188 57.714844 271.921875 C 57.714844 271.921875 54.488281 260.78125 55.257812 254.914062 C 56.023438 249.046875 55.355469 244.75 45.023438 242.453125 Z M 65.851562 237.144531 C 65.851562 237.144531 61.65625 253.535156 71.636719 268.699219 C 71.636719 268.699219 70.984375 257.121094 73.039062 251.574219 C 75.101562 246.027344 75.40625 241.6875 65.851562 237.144531 Z M 309.144531 237.144531 C 309.144531 237.144531 313.34375 253.535156 303.363281 268.699219 C 303.363281 268.699219 304.015625 257.121094 301.957031 251.574219 C 299.898438 246.027344 299.59375 241.6875 309.144531 237.144531 Z M 126.058594 198.574219 L 89.640625 198.574219 L 89.640625 253.460938 L 285.359375 253.460938 L 285.359375 198.574219 L 248.941406 198.574219 C 249.851562 197.277344 250.703125 195.921875 251.476562 194.515625 C 251.46875 194.4375 251.464844 194.363281 251.457031 194.289062 C 251.570312 194.167969 251.683594 194.042969 251.792969 193.917969 C 254.574219 188.625 256.207031 182.589844 255.695312 175.992188 C 254.140625 156 236.054688 148.707031 227.210938 124.746094 C 227.210938 124.746094 230.515625 123.191406 231.292969 119.886719 C 231.292969 119.886719 225.75 119.207031 223.320312 117.75 C 223.320312 117.75 228.015625 115.734375 229.085938 110.585938 C 217.949219 115.140625 204.671875 99.902344 187.5 105.21875 L 187.398438 105.1875 C 170.273438 99.964844 157.027344 115.132812 145.910156 110.585938 C 146.984375 115.734375 151.679688 117.75 151.679688 117.75 C 149.246094 119.207031 143.707031 119.886719 143.707031 119.886719 C 144.484375 123.191406 147.789062 124.746094 147.789062 124.746094 C 138.945312 148.707031 120.859375 156 119.304688 175.992188 C 118.789062 182.589844 120.421875 188.625 123.207031 193.921875 C 123.316406 194.042969 123.425781 194.167969 123.539062 194.289062 C 123.535156 194.363281 123.527344 194.4375 123.523438 194.511719 C 124.292969 195.921875 125.144531 197.277344 126.058594 198.574219 Z M 126.058594 198.574219 " fill-opacity="1" fill-rule="evenodd"/><path fill="#3a4230" d="M 354.222656 262.433594 C 354.222656 262.433594 351.117188 264.304688 353.433594 264.296875 C 355.746094 264.289062 351.652344 281.011719 343.097656 288.199219 C 343.097656 288.199219 348.496094 286.0625 352.71875 281.507812 C 356.941406 276.957031 359.371094 262.148438 359.371094 262.148438 Z M 20.773438 262.429688 C 20.773438 262.429688 23.878906 264.304688 21.566406 264.296875 C 19.25 264.289062 23.34375 281.011719 31.898438 288.199219 C 31.898438 288.199219 26.503906 286.0625 22.28125 281.507812 C 18.054688 276.957031 15.625 262.148438 15.625 262.148438 Z M 29.175781 249.347656 C 29.175781 249.347656 34 251.449219 31.777344 250.996094 C 29.554688 250.542969 34.148438 268.519531 43.347656 276.769531 C 43.347656 276.769531 38.855469 275.394531 34.441406 270.632812 C 30.027344 265.867188 26.210938 251.023438 26.378906 249.523438 C 26.550781 248.019531 29.175781 249.347656 29.175781 249.347656 Z M 345.824219 249.347656 C 345.824219 249.347656 340.996094 251.449219 343.21875 250.996094 C 345.445312 250.542969 340.851562 268.519531 331.648438 276.769531 C 331.648438 276.769531 336.140625 275.394531 340.554688 270.632812 C 344.972656 265.867188 348.789062 251.023438 348.617188 249.523438 C 348.445312 248.019531 345.824219 249.347656 345.824219 249.347656 Z M 49.386719 242.769531 C 49.386719 242.769531 52.292969 245.324219 50.046875 244.472656 C 47.800781 243.617188 48.78125 260.289062 57.757812 272.105469 C 57.757812 272.105469 51.316406 268.25 47.492188 260.652344 C 43.664062 253.0625 44.265625 241.5625 44.265625 241.5625 Z M 325.613281 242.769531 C 325.613281 242.769531 322.707031 245.324219 324.953125 244.472656 C 327.199219 243.617188 326.21875 260.289062 317.242188 272.105469 C 317.242188 272.105469 323.679688 268.246094 327.507812 260.652344 C 331.332031 253.0625 330.734375 241.5625 330.734375 241.5625 Z M 71.269531 238.265625 C 71.269531 238.265625 73.128906 241.480469 70.863281 240.5 C 68.605469 239.523438 68.074219 262.902344 71.636719 268.699219 C 71.636719 268.699219 66.105469 263.527344 64.75 255.660156 C 63.394531 247.789062 64.789062 235.578125 64.789062 235.578125 Z M 303.726562 238.265625 C 303.726562 238.265625 301.871094 241.480469 304.132812 240.5 C 306.394531 239.523438 306.921875 262.902344 303.363281 268.699219 C 303.363281 268.699219 308.894531 263.527344 310.25 255.660156 C 311.605469 247.789062 310.207031 235.578125 310.207031 235.578125 Z M 250.074219 159.902344 C 253.679688 166.96875 255.972656 191.1875 230.417969 202.796875 L 229.113281 194.015625 C 229.113281 194.015625 224.679688 198.804688 221.199219 205.046875 C 217.855469 211.03125 208.460938 228.625 187.5 230.054688 C 166.539062 228.625 157.140625 211.03125 153.800781 205.046875 C 150.316406 198.804688 145.886719 194.015625 145.886719 194.015625 L 144.582031 202.796875 C 119.027344 191.1875 121.320312 166.96875 124.925781 159.902344 C 102.835938 188.355469 142.1875 218.253906 144.363281 219.847656 C 146.542969 221.445312 150.460938 216.511719 150.460938 216.511719 C 150.460938 216.511719 156.558594 221.445312 158.882812 225.074219 C 161.207031 228.703125 182.550781 238.714844 187.195312 237.261719 C 187.300781 237.230469 187.402344 237.195312 187.5 237.160156 C 187.597656 237.195312 187.699219 237.230469 187.804688 237.261719 C 192.449219 238.714844 213.792969 228.703125 216.117188 225.074219 C 218.441406 221.445312 224.539062 216.511719 224.539062 216.511719 C 224.539062 216.511719 228.457031 221.445312 230.636719 219.847656 C 232.8125 218.253906 272.160156 188.355469 250.074219 159.902344 Z M 156.414062 189.359375 C 157.058594 196.332031 175.996094 199.546875 179.207031 193.289062 C 179.207031 193.289062 171.511719 188.28125 169.261719 183.785156 C 167.011719 179.285156 171.867188 174.84375 171.867188 174.84375 L 184 181.609375 C 184 181.609375 186.160156 184.289062 187.5 187.550781 C 188.839844 184.289062 190.996094 181.609375 190.996094 181.609375 L 203.132812 174.84375 C 203.132812 174.84375 207.984375 179.285156 205.734375 183.785156 C 203.484375 188.28125 195.789062 193.289062 195.789062 193.289062 C 199 199.546875 217.941406 196.332031 218.585938 189.359375 C 220.398438 191.039062 218.078125 196.699219 215.390625 198.515625 C 212.703125 200.328125 198.910156 203.449219 192.957031 202.722656 C 189.359375 202.285156 188.125 200.8125 187.5 198.59375 C 186.875 200.8125 185.636719 202.285156 182.039062 202.722656 C 176.085938 203.449219 162.292969 200.328125 159.605469 198.515625 C 156.921875 196.699219 154.597656 191.039062 156.414062 189.359375 Z M 156.414062 189.359375 " fill-opacity="1" fill-rule="evenodd"/><path fill="#3a401d" d="M 304.570312 216.511719 C 303.6875 216.050781 303.117188 215.839844 302.921875 215.957031 C 301.285156 216.945312 286.6875 212.265625 286.003906 201.359375 C 285.324219 190.453125 265.996094 190.238281 265.996094 190.238281 C 265.996094 190.238281 261.09375 184.785156 256.714844 179.964844 C 257.191406 178.703125 257.5625 177.402344 257.796875 176.0625 C 259.765625 164.902344 255.269531 154.390625 252.097656 148.664062 C 264.292969 152.789062 281.6875 161.46875 295.867188 179.472656 C 295.867188 179.472656 349.453125 199.757812 359.621094 232.390625 C 359.621094 232.390625 358.570312 233.585938 356.195312 234.8125 C 357.320312 235.988281 357.664062 237.507812 357.738281 238.027344 C 357.878906 238.957031 358.335938 248.382812 358.335938 248.382812 C 358.335938 248.382812 370.042969 251.136719 370.710938 252.8125 C 371.382812 254.488281 368.050781 262.738281 368.050781 262.738281 C 368.050781 262.738281 359.902344 276.363281 358.265625 277.195312 C 356.628906 278.035156 356.15625 277.871094 355.660156 277.65625 C 355.171875 277.4375 358.074219 268.722656 358.632812 265.929688 C 359.195312 263.140625 359.515625 261.136719 359.515625 261.136719 L 350.34375 263.019531 L 344.695312 265.882812 C 344.695312 265.882812 347.523438 254.914062 347.820312 253.710938 C 348.117188 252.503906 348.445312 248.210938 348.445312 248.210938 C 348.445312 248.210938 338.546875 249.089844 336.667969 252.171875 C 334.792969 255.253906 331.386719 257.613281 330.515625 257.828125 C 329.648438 258.039062 328.859375 257.292969 328.859375 257.292969 C 328.859375 257.292969 331.273438 249.300781 331.019531 246.414062 C 330.765625 243.523438 330.867188 240.933594 330.867188 240.933594 C 330.867188 240.933594 325.648438 242.511719 323.667969 243.914062 C 321.6875 245.3125 318.898438 247.347656 318.898438 247.347656 C 318.898438 247.347656 315.5 249.75 314.550781 250.335938 C 313.597656 250.914062 311.222656 251.308594 310.972656 251.292969 C 310.726562 251.277344 311.683594 239.828125 311.238281 238.011719 C 310.796875 236.195312 309.75 234.960938 309.75 234.960938 L 300.304688 239.492188 C 298.015625 238.734375 300.695312 232.832031 297.449219 230.644531 C 294.199219 228.460938 291.007812 228.84375 291.605469 227.867188 C 292.203125 226.890625 291.433594 222.484375 295.59375 220.15625 C 297.441406 219.121094 300.996094 217.726562 304.570312 216.511719 Z M 18.800781 234.8125 C 17.675781 235.988281 17.335938 237.507812 17.257812 238.027344 C 17.121094 238.957031 16.660156 248.382812 16.660156 248.382812 C 16.660156 248.382812 4.957031 251.136719 4.285156 252.8125 C 3.613281 254.488281 6.949219 262.738281 6.949219 262.738281 C 6.949219 262.738281 15.097656 276.363281 16.730469 277.195312 C 18.367188 278.03125 18.84375 277.871094 19.335938 277.65625 C 19.828125 277.4375 16.925781 268.722656 16.363281 265.929688 C 15.800781 263.140625 15.480469 261.136719 15.480469 261.136719 L 24.652344 263.019531 L 30.304688 265.882812 C 30.304688 265.882812 27.476562 254.914062 27.175781 253.707031 C 26.878906 252.503906 26.554688 248.210938 26.554688 248.210938 C 26.554688 248.210938 36.453125 249.089844 38.328125 252.171875 C 40.207031 255.253906 43.613281 257.613281 44.480469 257.828125 C 45.347656 258.035156 46.136719 257.292969 46.136719 257.292969 C 46.136719 257.292969 43.726562 249.300781 43.980469 246.414062 C 44.230469 243.523438 44.132812 240.933594 44.132812 240.933594 C 44.132812 240.933594 49.351562 242.511719 51.328125 243.910156 C 53.308594 245.3125 56.097656 247.347656 56.097656 247.347656 C 56.097656 247.347656 59.496094 249.75 60.449219 250.335938 C 61.402344 250.914062 63.777344 251.304688 64.023438 251.292969 C 64.273438 251.277344 63.3125 239.828125 63.757812 238.011719 C 64.199219 236.195312 65.246094 234.960938 65.246094 234.960938 L 74.695312 239.492188 C 76.980469 238.734375 74.304688 232.832031 77.550781 230.644531 C 80.796875 228.460938 83.988281 228.84375 83.394531 227.867188 C 82.796875 226.890625 83.566406 222.484375 79.402344 220.15625 C 77.554688 219.121094 74.003906 217.726562 70.429688 216.511719 C 71.308594 216.050781 71.882812 215.839844 72.074219 215.957031 C 73.710938 216.945312 88.308594 212.265625 88.992188 201.359375 C 89.675781 190.453125 109 190.238281 109 190.238281 C 109 190.238281 113.910156 184.785156 118.285156 179.964844 C 117.808594 178.699219 117.4375 177.402344 117.203125 176.0625 C 115.234375 164.902344 119.726562 154.390625 122.902344 148.664062 C 110.703125 152.789062 93.3125 161.46875 79.132812 179.472656 C 79.132812 179.472656 25.542969 199.757812 15.375 232.390625 C 15.375 232.390625 16.425781 233.589844 18.800781 234.8125 Z M 34.800781 236.675781 C 33.683594 237.015625 32.644531 237.246094 31.703125 237.347656 C 33.199219 238.449219 34.1875 239.347656 34.1875 239.347656 C 34.1875 239.347656 34.445312 238.21875 34.800781 236.675781 Z M 340.195312 236.675781 C 341.316406 237.015625 342.355469 237.246094 343.292969 237.347656 C 341.800781 238.449219 340.8125 239.347656 340.8125 239.347656 C 340.8125 239.347656 340.554688 238.21875 340.195312 236.675781 Z M 340.195312 236.675781 " fill-opacity="1" fill-rule="evenodd"/><g clip-path="url(#a763640417)"><path fill="#000000" d="M 113.910156 177.996094 C 113.609375 157.441406 132.527344 149.496094 135.308594 131.734375 C 135.308594 131.734375 116.417969 131.253906 114.109375 118.5 C 111.800781 105.75 118.847656 98.703125 118.847656 98.703125 C 117.265625 98.339844 113.746094 100.039062 113.746094 100.039062 C 119.457031 87.042969 129.800781 88.882812 129.800781 88.882812 C 127.871094 87.074219 124.195312 86.195312 124.195312 86.195312 C 124.195312 86.195312 127.957031 83.28125 138.652344 84.859375 C 147.871094 86.21875 154.277344 95.6875 155.957031 104.242188 C 160.640625 104.425781 171.214844 98.996094 171.214844 98.996094 C 170.144531 98.414062 168.007812 97.839844 168.007812 97.839844 C 176.734375 94.78125 185.339844 96.582031 187.5 96.8125 C 189.660156 96.582031 198.265625 94.78125 206.992188 97.839844 C 206.992188 97.839844 204.851562 98.414062 203.785156 98.996094 C 203.785156 98.996094 214.355469 104.425781 219.042969 104.242188 C 220.722656 95.6875 227.128906 86.21875 236.34375 84.859375 C 247.035156 83.28125 250.804688 86.195312 250.804688 86.195312 C 250.804688 86.195312 247.125 87.070312 245.199219 88.882812 C 245.199219 88.882812 255.542969 87.042969 261.253906 100.039062 C 261.253906 100.039062 257.730469 98.339844 256.152344 98.703125 C 256.152344 98.703125 263.199219 105.75 260.890625 118.5 C 258.582031 131.253906 239.6875 131.734375 239.6875 131.734375 C 242.472656 149.496094 261.394531 157.445312 261.085938 178 C 263.488281 171.082031 262.914062 166.070312 262.914062 166.070312 L 262.871094 165.933594 C 273.019531 170.449219 287.519531 180.050781 301.039062 200.382812 C 301.039062 200.382812 300.203125 196.058594 296.757812 190.769531 C 303.710938 192.582031 348.957031 212.289062 351.425781 228.253906 C 347.917969 227.886719 345.25 229.898438 342.429688 230.714844 C 342.539062 227.886719 339.796875 221.386719 340.433594 217.792969 C 333.085938 214.53125 323.601562 218.480469 323.601562 218.480469 C 323.601562 218.480469 319.105469 210.261719 319.339844 206.445312 C 314.101562 205.605469 299.800781 214.835938 299.355469 215.125 C 304.886719 211.9375 311.851562 208.941406 318.378906 208.789062 C 318.378906 208.789062 316.988281 213.335938 317.082031 214.148438 L 319.511719 211.460938 C 319.511719 211.460938 318.871094 214.628906 319.585938 216.300781 C 320.304688 217.96875 322.335938 221.203125 323.222656 223.65625 C 326.839844 220.257812 334.058594 218.824219 338.550781 219.550781 C 338.550781 219.550781 337.828125 224.519531 339.523438 225.503906 C 341.214844 226.496094 341.984375 232.328125 341.992188 234.175781 C 341.992188 234.175781 345.523438 231.683594 350.425781 230.992188 L 357.617188 231.515625 C 358.582031 231.8125 359.558594 232.21875 360.535156 232.753906 C 360.535156 232.753906 358.839844 234.929688 359.585938 236.164062 C 360.328125 237.40625 360.605469 243.152344 359.125 246.585938 C 359.125 246.585938 368.84375 245.878906 375 251.6875 C 375 251.6875 371.035156 256.226562 371.769531 259.019531 C 372.507812 261.8125 362.042969 276.066406 360.273438 277.488281 C 358.496094 278.910156 356.402344 279.582031 356.402344 279.582031 C 356.402344 279.582031 348.570312 289.761719 338.308594 291.625 C 338.308594 291.625 343.207031 284.367188 343.933594 275.339844 L 343.273438 269.660156 C 343.273438 269.660156 338.160156 277.457031 327.328125 280.785156 C 327.328125 280.785156 331.574219 272.371094 331.671875 260.535156 L 328.550781 261.835938 C 328.550781 261.835938 324.125 275.417969 313.496094 279.054688 C 313.496094 279.054688 317.03125 261.644531 316.332031 257.171875 L 315.007812 254.414062 L 312.835938 255.703125 C 312.835938 255.703125 308.535156 272.476562 299.632812 277.683594 C 299.632812 277.683594 300.910156 264.230469 299.515625 259.4375 C 299.914062 258.746094 272.5 253.46875 267.191406 253.578125 C 267.496094 247.15625 269.414062 234.035156 279.128906 220.910156 C 279.128906 220.910156 268.332031 225.984375 258.804688 238.050781 C 258.804688 238.050781 257.761719 221.890625 267.894531 210.1875 C 267.894531 210.1875 259.164062 213.367188 248.46875 227.460938 C 248.46875 227.460938 246.875 217.652344 248.601562 208.558594 C 240.628906 218.0625 230.324219 224.792969 222.125 228.554688 C 222.25 226.417969 222.273438 224.265625 221.722656 222.03125 C 220.878906 223.136719 206.695312 241.664062 187.5 241.664062 C 168.300781 241.664062 154.121094 223.136719 153.277344 222.03125 C 152.722656 224.265625 152.746094 226.417969 152.875 228.554688 C 144.675781 224.792969 134.367188 218.0625 126.394531 208.558594 C 128.125 217.652344 126.527344 227.460938 126.527344 227.460938 C 115.835938 213.367188 107.101562 210.1875 107.101562 210.1875 C 117.238281 221.890625 116.191406 238.050781 116.191406 238.050781 C 106.667969 225.984375 95.871094 220.910156 95.871094 220.910156 C 105.585938 234.035156 107.503906 247.15625 107.804688 253.578125 C 102.5 253.46875 75.082031 258.746094 75.484375 259.4375 C 74.089844 264.230469 75.363281 277.683594 75.363281 277.683594 C 66.460938 272.476562 62.164062 255.703125 62.164062 255.703125 L 59.992188 254.414062 L 58.667969 257.171875 C 57.964844 261.644531 61.503906 279.054688 61.503906 279.054688 C 50.875 275.417969 46.449219 261.835938 46.449219 261.835938 L 43.324219 260.535156 C 43.421875 272.371094 47.671875 280.785156 47.671875 280.785156 C 36.839844 277.457031 31.722656 269.660156 31.722656 269.660156 L 31.0625 275.339844 C 31.792969 284.367188 36.6875 291.625 36.6875 291.625 C 26.429688 289.761719 18.59375 279.582031 18.59375 279.582031 C 18.59375 279.582031 16.503906 278.910156 14.726562 277.488281 C 12.949219 276.066406 2.492188 261.8125 3.226562 259.019531 C 3.960938 256.226562 0 251.6875 0 251.6875 C 6.152344 245.878906 15.875 246.585938 15.875 246.585938 C 14.390625 243.152344 14.671875 237.40625 15.414062 236.164062 C 16.15625 234.929688 14.460938 232.75 14.460938 232.75 C 15.441406 232.21875 16.417969 231.8125 17.382812 231.515625 L 24.574219 230.992188 C 29.476562 231.683594 33.003906 234.175781 33.003906 234.175781 C 33.015625 232.328125 33.78125 226.492188 35.476562 225.507812 C 37.171875 224.519531 36.449219 219.550781 36.449219 219.550781 C 40.941406 218.824219 48.15625 220.257812 51.777344 223.65625 C 52.660156 221.203125 54.691406 217.96875 55.410156 216.296875 C 56.128906 214.628906 55.488281 211.460938 55.488281 211.460938 L 57.917969 214.148438 C 58.007812 213.335938 56.621094 208.789062 56.621094 208.789062 C 63.148438 208.941406 70.121094 211.941406 75.652344 215.132812 C 75.652344 215.132812 60.980469 205.589844 55.660156 206.445312 C 55.894531 210.261719 51.398438 218.480469 51.398438 218.480469 C 51.398438 218.480469 41.914062 214.53125 34.566406 217.792969 C 35.203125 221.386719 32.457031 227.886719 32.570312 230.714844 C 29.75 229.898438 27.082031 227.886719 23.574219 228.253906 C 26.039062 212.289062 71.289062 192.582031 78.242188 190.769531 C 74.792969 196.058594 73.960938 200.382812 73.960938 200.382812 C 87.476562 180.050781 101.980469 170.449219 112.128906 165.933594 L 112.085938 166.070312 C 112.085938 166.070312 111.511719 171.082031 113.910156 177.996094 Z M 16.691406 262.738281 C 16.691406 262.738281 18.347656 277.972656 31.640625 287.660156 C 31.640625 287.660156 27.402344 278.050781 27.382812 272.691406 C 27.359375 267.332031 26.242188 263.554688 16.691406 262.738281 Z M 358.304688 262.738281 C 358.304688 262.738281 356.648438 277.972656 343.355469 287.660156 C 343.355469 287.660156 347.597656 278.050781 347.617188 272.691406 C 347.636719 267.332031 348.757812 263.554688 358.304688 262.738281 Z M 27.1875 249.652344 C 27.1875 249.652344 28.972656 266.070312 43.296875 276.511719 C 43.296875 276.511719 38.730469 266.15625 38.707031 260.378906 C 38.6875 254.601562 37.476562 250.53125 27.1875 249.652344 Z M 347.8125 249.652344 C 347.8125 249.652344 346.027344 266.070312 331.703125 276.511719 C 331.703125 276.511719 336.269531 266.15625 336.289062 260.378906 C 336.3125 254.601562 337.519531 250.53125 347.8125 249.652344 Z M 353.167969 260.726562 C 353.167969 260.726562 355.652344 253.386719 357.230469 251.660156 C 358.808594 249.929688 366.300781 253.453125 366.261719 254.65625 C 366.261719 254.65625 365 255.765625 365.46875 257.550781 C 365.941406 259.339844 364.601562 263.09375 362.121094 268.640625 C 359.640625 274.191406 357.210938 274.945312 357.210938 274.945312 C 357.210938 274.945312 359.320312 268.902344 359.816406 264.890625 C 360.316406 260.875 361.796875 259.472656 361.796875 259.472656 C 361.796875 259.472656 356.210938 258.671875 353.167969 260.726562 Z M 21.832031 260.726562 C 21.832031 260.726562 19.347656 253.386719 17.765625 251.660156 C 16.191406 249.929688 8.695312 253.453125 8.734375 254.65625 C 8.734375 254.65625 10 255.765625 9.527344 257.550781 C 9.058594 259.335938 10.394531 263.09375 12.878906 268.640625 C 15.359375 274.191406 17.785156 274.945312 17.785156 274.945312 C 17.785156 274.945312 15.675781 268.902344 15.179688 264.890625 C 14.683594 260.875 13.199219 259.472656 13.199219 259.472656 C 13.199219 259.472656 18.789062 258.671875 21.832031 260.726562 Z M 329.972656 242.453125 C 329.972656 242.453125 330.40625 259.363281 317.285156 271.921875 C 317.285156 271.921875 320.511719 260.78125 319.742188 254.914062 C 318.972656 249.046875 319.644531 244.75 329.972656 242.453125 Z M 45.023438 242.453125 C 45.023438 242.453125 44.59375 259.367188 57.714844 271.921875 C 57.714844 271.921875 54.488281 260.78125 55.257812 254.914062 C 56.023438 249.046875 55.355469 244.75 45.023438 242.453125 Z M 65.851562 237.144531 C 65.851562 237.144531 61.65625 253.535156 71.636719 268.699219 C 71.636719 268.699219 70.984375 257.121094 73.039062 251.574219 C 75.101562 246.027344 75.40625 241.6875 65.851562 237.144531 Z M 309.144531 237.144531 C 309.144531 237.144531 313.34375 253.535156 303.363281 268.699219 C 303.363281 268.699219 304.015625 257.121094 301.957031 251.574219 C 299.898438 246.027344 299.59375 241.6875 309.144531 237.144531 Z M 35.191406 247.648438 C 35.191406 247.648438 31.417969 237.9375 28.042969 236.691406 C 24.667969 235.445312 20.546875 235.671875 20.546875 235.671875 C 20.546875 235.671875 23.007812 238.113281 21.398438 239.238281 C 19.789062 240.371094 17.710938 245.074219 19.433594 248.515625 C 21.15625 251.953125 24.808594 262.585938 28.515625 263.921875 C 28.515625 263.921875 25.914062 257.027344 25.851562 252.710938 C 25.796875 248.398438 23.640625 246.15625 23.640625 246.15625 C 23.640625 246.15625 29.066406 244.601562 35.191406 247.648438 Z M 339.804688 247.648438 C 339.804688 247.648438 343.578125 237.9375 346.957031 236.691406 C 350.328125 235.445312 354.453125 235.671875 354.453125 235.671875 C 354.453125 235.671875 351.988281 238.113281 353.601562 239.238281 C 355.210938 240.371094 357.289062 245.074219 355.5625 248.515625 C 353.84375 251.953125 350.191406 262.585938 346.484375 263.921875 C 346.484375 263.921875 349.085938 257.027344 349.144531 252.710938 C 349.203125 248.398438 351.359375 246.15625 351.359375 246.15625 C 351.359375 246.15625 345.933594 244.601562 339.804688 247.648438 Z M 320.308594 241.433594 C 320.308594 241.433594 323.5 232.234375 324.582031 229.085938 C 325.667969 225.933594 333.980469 225.296875 333.980469 225.296875 C 333.980469 225.296875 333.425781 228.1875 334.191406 228.824219 C 334.957031 229.457031 338.722656 230.617188 338.695312 237.308594 C 338.667969 244.003906 334.867188 251.574219 334.140625 252.898438 C 333.414062 254.222656 330.484375 255.117188 330.484375 255.117188 C 330.484375 255.117188 332.128906 250.023438 331.898438 244.832031 C 331.664062 239.640625 333.480469 239.042969 333.480469 239.042969 C 333.480469 239.042969 324.714844 239.558594 321.140625 243.898438 C 321.140625 243.898438 324.207031 239.214844 326.722656 237.894531 C 326.722656 237.894531 323.054688 238.921875 320.308594 241.433594 Z M 54.6875 241.433594 C 54.6875 241.433594 51.496094 232.234375 50.414062 229.085938 C 49.332031 225.933594 41.019531 225.296875 41.019531 225.296875 C 41.019531 225.296875 41.570312 228.1875 40.804688 228.824219 C 40.042969 229.457031 36.273438 230.617188 36.304688 237.308594 C 36.332031 244.003906 40.132812 251.570312 40.855469 252.898438 C 41.582031 254.222656 44.511719 255.117188 44.511719 255.117188 C 44.511719 255.117188 42.867188 250.023438 43.101562 244.832031 C 43.332031 239.640625 41.519531 239.042969 41.519531 239.042969 C 41.519531 239.042969 50.28125 239.554688 53.859375 243.898438 C 53.859375 243.898438 50.792969 239.214844 48.273438 237.894531 C 48.273438 237.894531 51.945312 238.921875 54.6875 241.433594 Z M 81.914062 225.71875 L 81.957031 225.925781 C 76.414062 223.789062 75.804688 225.671875 75.804688 225.671875 C 75.804688 225.671875 75.265625 239.503906 73.648438 236.570312 C 72.035156 233.636719 61.640625 231.140625 61.640625 231.140625 C 61.640625 231.140625 64.21875 232 62.898438 237.917969 C 61.578125 243.84375 62.921875 249.867188 62.921875 249.867188 C 62.921875 249.867188 61.585938 248.796875 60.28125 247.859375 C 58.976562 246.917969 54.523438 235.714844 55.160156 229.195312 C 55.804688 222.679688 59.203125 219.753906 60.949219 219.015625 C 62.695312 218.285156 61.109375 215.238281 61.109375 215.238281 C 69.960938 216.730469 79.6875 223.984375 81.914062 225.71875 Z M 293.085938 225.71875 L 293.042969 225.925781 C 298.585938 223.789062 299.195312 225.671875 299.195312 225.671875 C 299.195312 225.671875 299.730469 239.503906 301.347656 236.570312 C 302.964844 233.636719 313.359375 231.140625 313.359375 231.140625 C 313.359375 231.140625 310.777344 232 312.097656 237.917969 C 313.417969 243.84375 312.078125 249.867188 312.078125 249.867188 C 312.078125 249.867188 313.410156 248.796875 314.714844 247.859375 C 316.019531 246.917969 320.476562 235.714844 319.835938 229.195312 C 319.195312 222.679688 315.792969 219.753906 314.046875 219.015625 C 312.300781 218.285156 313.890625 215.238281 313.890625 215.238281 C 305.039062 216.730469 295.3125 223.984375 293.085938 225.71875 Z M 251.792969 193.917969 C 254.574219 188.625 256.207031 182.589844 255.695312 175.992188 C 254.140625 156 236.054688 148.707031 227.210938 124.746094 C 227.210938 124.746094 230.515625 123.191406 231.292969 119.886719 C 231.292969 119.886719 225.75 119.207031 223.320312 117.75 C 223.320312 117.75 228.015625 115.734375 229.085938 110.585938 C 217.949219 115.140625 204.671875 99.902344 187.5 105.21875 L 187.398438 105.1875 C 170.273438 99.964844 157.027344 115.132812 145.910156 110.585938 C 146.984375 115.734375 151.679688 117.75 151.679688 117.75 C 149.246094 119.207031 143.707031 119.886719 143.707031 119.886719 C 144.484375 123.191406 147.789062 124.746094 147.789062 124.746094 C 138.945312 148.707031 120.859375 156 119.304688 175.992188 C 118.789062 182.589844 120.421875 188.625 123.207031 193.921875 C 123.316406 194.042969 123.425781 194.167969 123.539062 194.289062 C 123.535156 194.363281 123.527344 194.4375 123.523438 194.511719 C 129.648438 205.707031 140.84375 213.496094 147.402344 216.175781 C 147.371094 214.28125 148.039062 206.40625 149.285156 204.574219 C 159.660156 229.554688 178.207031 233.503906 187.5 233.503906 C 196.792969 233.503906 215.335938 229.554688 225.710938 204.574219 C 226.960938 206.40625 227.625 214.28125 227.597656 216.175781 C 234.15625 213.496094 245.351562 205.707031 251.476562 194.515625 C 251.46875 194.4375 251.464844 194.363281 251.457031 194.289062 C 251.570312 194.167969 251.683594 194.042969 251.792969 193.917969 Z M 187.5 172.714844 C 192.335938 172.714844 203.625 172.339844 204.695312 176.933594 C 205.757812 181.527344 200.15625 185.320312 200.15625 185.320312 C 200.15625 185.320312 199.886719 183.917969 197.570312 184.144531 C 195.257812 184.371094 193.125 187.363281 193.578125 188.585938 C 194.03125 189.8125 195.984375 189.675781 195.984375 189.675781 C 195.984375 189.675781 194.351562 192.171875 191.128906 192.625 C 191.128906 192.625 190.3125 196.578125 197.933594 198.847656 C 205.558594 201.113281 217.1875 198.054688 218.363281 191.160156 C 219.546875 184.265625 216.265625 181.703125 216.265625 181.703125 C 216.265625 181.703125 223.785156 184.894531 222.5625 193.09375 C 221.703125 198.878906 215.578125 201.617188 207.976562 202.597656 C 207.730469 205.652344 205.640625 220.726562 187.5 220.726562 C 169.359375 220.726562 167.261719 205.652344 167.023438 202.597656 C 159.421875 201.617188 153.292969 198.878906 152.433594 193.09375 C 151.214844 184.894531 158.734375 181.703125 158.734375 181.703125 C 158.734375 181.703125 155.453125 184.265625 156.628906 191.160156 C 157.8125 198.054688 169.4375 201.113281 177.0625 198.847656 C 184.6875 196.578125 183.871094 192.625 183.871094 192.625 C 180.648438 192.171875 179.015625 189.675781 179.015625 189.675781 C 179.015625 189.675781 180.964844 189.8125 181.421875 188.585938 C 181.875 187.363281 179.742188 184.371094 177.425781 184.144531 C 175.113281 183.917969 174.839844 185.320312 174.839844 185.320312 C 174.839844 185.320312 169.234375 181.527344 170.304688 176.933594 C 171.371094 172.339844 182.664062 172.714844 187.5 172.714844 Z M 187.5 216.554688 C 195.121094 216.554688 200.292969 213.519531 201.472656 210.902344 C 202.652344 208.285156 202.109375 204.59375 202.109375 204.59375 C 197.664062 211.632812 193.308594 212.632812 193.308594 212.632812 L 193.285156 210.019531 C 193.285156 210.019531 189.8125 212.773438 187.5 212.519531 C 185.183594 212.773438 181.714844 210.019531 181.714844 210.019531 L 181.691406 212.632812 C 181.691406 212.632812 177.335938 211.632812 172.890625 204.59375 C 172.890625 204.59375 172.34375 208.285156 173.523438 210.902344 C 174.707031 213.519531 179.878906 216.554688 187.5 216.554688 Z M 187.5 177.363281 C 185.394531 177.363281 174.378906 176.804688 175.339844 175.515625 C 176.125 174.460938 184.683594 174.503906 187.488281 174.507812 L 187.511719 174.507812 C 190.316406 174.503906 198.871094 174.460938 199.65625 175.515625 C 200.617188 176.804688 189.605469 177.363281 187.5 177.363281 Z M 182.167969 149.027344 C 182.167969 149.027344 186.910156 154.492188 182.511719 158.300781 C 178.109375 162.113281 164.792969 153.957031 157.761719 146.851562 C 149.410156 138.417969 139.972656 151.660156 139.972656 151.660156 C 139.972656 151.660156 146.914062 147.804688 149.683594 148.074219 C 152.449219 148.347656 152.90625 150.523438 152.90625 150.523438 C 152.90625 150.523438 143.625 151.023438 141.535156 157.917969 C 139.449219 164.808594 149.046875 177.046875 158.484375 177.144531 C 165.390625 177.21875 170.515625 169.859375 175.039062 165.746094 C 179.449219 161.734375 183.640625 162.875 184.261719 164.164062 C 184.261719 164.164062 178.515625 163.230469 173.820312 170.207031 C 173.820312 170.207031 179.035156 166.808594 187.199219 166.808594 L 187.800781 166.808594 C 195.960938 166.808594 201.179688 170.207031 201.179688 170.207031 C 196.480469 163.230469 190.738281 164.164062 190.738281 164.164062 C 191.355469 162.875 195.546875 161.734375 199.960938 165.746094 C 204.484375 169.859375 209.605469 177.21875 216.515625 177.144531 C 225.949219 177.046875 235.546875 164.808594 233.460938 157.917969 C 231.375 151.023438 222.09375 150.523438 222.09375 150.523438 C 222.09375 150.523438 222.546875 148.347656 225.316406 148.074219 C 228.085938 147.804688 235.027344 151.660156 235.027344 151.660156 C 235.027344 151.660156 225.585938 138.417969 217.238281 146.851562 C 210.203125 153.957031 196.890625 162.113281 192.488281 158.300781 C 188.085938 154.492188 192.824219 149.027344 192.824219 149.027344 C 188.972656 150.265625 187.816406 152.992188 187.5 154.132812 C 187.175781 152.992188 186.027344 150.265625 182.167969 149.027344 Z M 203.953125 163.1875 L 215.902344 158.84375 C 215.902344 158.84375 217.339844 164.582031 213.226562 166.40625 C 209.113281 168.226562 203.953125 163.1875 203.953125 163.1875 Z M 171.046875 163.1875 L 159.097656 158.84375 C 159.097656 158.84375 157.660156 164.582031 161.773438 166.40625 C 165.886719 168.226562 171.046875 163.1875 171.046875 163.1875 Z M 187.5 110.160156 C 185.476562 109.570312 164.917969 105.359375 155.058594 121.359375 C 155.058594 121.359375 167.359375 112.097656 178.230469 113.105469 C 178.230469 113.105469 173.933594 113.863281 170.644531 116.644531 C 182.894531 112.679688 185.886719 118.035156 187.5 124.058594 C 189.113281 118.035156 192.105469 112.679688 204.351562 116.644531 C 201.066406 113.863281 196.769531 113.105469 196.769531 113.105469 C 207.636719 112.097656 219.941406 121.359375 219.941406 121.359375 C 210.082031 105.359375 189.519531 109.570312 187.5 110.160156 Z M 187.5 110.160156 " fill-opacity="1" fill-rule="evenodd"/></g></svg>