<svg xmlns="http://www.w3.org/2000/svg" xmlns:xlink="http://www.w3.org/1999/xlink" width="500" zoomAndPan="magnify" viewBox="0 0 375 374.999991" height="500" preserveAspectRatio="xMidYMid meet" version="1.0"><path fill="#ed1e24" d="M 255.355469 250.21875 L 327.664062 267.34375 L 261.953125 206.691406 L 315.066406 192.769531 L 263.03125 179.128906 L 375.007812 148.917969 L 272.957031 163.546875 L 293.226562 147.886719 L 239.398438 155.75 L 365.675781 28.597656 L 245.273438 123.542969 L 262.078125 52.597656 L 201.421875 118.3125 L 187.5 65.203125 L 177.152344 104.664062 L 148.917969 -0.0078125 L 165.671875 116.878906 L 142.621094 87.039062 L 148.6875 128.589844 L 28.601562 9.324219 L 117.199219 121.683594 L 115.3125 120.578125 L 124.617188 136.492188 L 47.332031 118.191406 L 113.042969 178.84375 L 59.933594 192.769531 L 92.164062 201.21875 L -0.0078125 226.082031 L 118.78125 209.054688 L 81.773438 237.648438 L 123.363281 231.574219 L 9.324219 346.402344 L 117.625 261 L 115.3125 264.953125 L 131.226562 255.648438 L 112.925781 332.933594 L 173.574219 267.222656 L 187.5 320.332031 L 199.246094 275.53125 L 226.082031 375.007812 L 211.179688 271.054688 L 232.378906 298.496094 L 224.511719 244.621094 L 346.402344 365.675781 L 255.355469 250.21875 " fill-opacity="1" fill-rule="nonzero"/><path fill="#f2541b" d="M 239.667969 235.71875 L 295.261719 248.882812 L 244.738281 202.253906 L 285.574219 191.546875 L 245.574219 181.058594 L 331.65625 157.835938 L 253.199219 169.082031 L 268.785156 157.046875 L 227.398438 163.089844 L 324.484375 65.335938 L 231.917969 138.328125 L 244.835938 83.789062 L 198.203125 134.308594 L 187.5 93.472656 L 179.546875 123.8125 L 157.839844 43.34375 L 170.71875 133.203125 L 152.996094 110.265625 L 157.660156 142.210938 L 65.335938 50.515625 L 133.449219 136.898438 L 132.003906 136.054688 L 139.152344 148.285156 L 79.738281 134.214844 L 130.257812 180.84375 L 89.425781 191.546875 L 114.203125 198.046875 L 43.339844 217.164062 L 134.667969 204.070312 L 106.214844 226.054688 L 138.191406 221.382812 L 50.515625 309.664062 L 133.777344 244.007812 L 132.003906 247.046875 L 144.238281 239.894531 L 130.164062 299.3125 L 176.792969 248.792969 L 187.5 289.625 L 196.53125 255.179688 L 217.160156 331.65625 L 205.707031 251.738281 L 222.003906 272.832031 L 215.957031 231.417969 L 309.664062 324.484375 L 239.667969 235.71875 " fill-opacity="1" fill-rule="nonzero"/><path fill="#efee0e" d="M 221.445312 218.871094 L 257.613281 227.4375 L 224.742188 197.097656 L 251.3125 190.132812 L 225.28125 183.308594 L 281.292969 168.199219 L 230.25 175.515625 L 240.386719 167.6875 L 213.460938 171.617188 L 276.625 108.019531 L 216.398438 155.507812 L 224.804688 120.019531 L 194.464844 152.894531 L 187.5 126.328125 L 182.324219 146.0625 L 168.199219 93.707031 L 176.582031 152.171875 L 165.050781 137.25 L 168.085938 158.035156 L 108.015625 98.375 L 152.335938 154.578125 L 151.390625 154.023438 L 156.042969 161.988281 L 117.386719 152.832031 L 150.257812 183.167969 L 123.691406 190.132812 L 139.808594 194.359375 L 93.707031 206.800781 L 153.125 198.28125 L 134.613281 212.585938 L 155.417969 209.546875 L 98.375 266.984375 L 152.546875 224.265625 L 151.390625 226.242188 L 159.351562 221.589844 L 150.195312 260.25 L 180.535156 227.378906 L 187.5 253.945312 L 193.375 231.535156 L 206.800781 281.292969 L 199.347656 229.296875 L 209.949219 243.019531 L 206.015625 216.074219 L 266.980469 276.625 L 221.445312 218.871094 " fill-opacity="1" fill-rule="nonzero"/><path fill="#ffffff" d="M 208.515625 206.925781 L 230.914062 212.230469 L 210.5625 193.445312 L 227.011719 189.128906 L 210.894531 184.90625 L 245.574219 175.550781 L 213.96875 180.078125 L 220.246094 175.230469 L 203.570312 177.664062 L 242.6875 138.28125 L 205.394531 167.6875 L 210.597656 145.71875 L 191.8125 166.070312 L 187.5 149.621094 L 184.296875 161.84375 L 175.550781 129.425781 L 180.738281 165.628906 L 173.597656 156.386719 L 175.480469 169.253906 L 138.285156 132.3125 L 165.726562 167.113281 L 165.140625 166.773438 L 168.023438 171.703125 L 144.085938 166.03125 L 164.4375 184.820312 L 147.988281 189.128906 L 157.972656 191.746094 L 129.421875 199.449219 L 166.214844 194.175781 L 154.753906 203.035156 L 167.636719 201.152344 L 132.3125 236.71875 L 165.859375 210.265625 L 165.140625 211.492188 L 170.070312 208.609375 L 164.402344 232.542969 L 183.1875 212.191406 L 187.5 228.640625 L 191.136719 214.765625 L 199.449219 245.574219 L 194.835938 213.378906 L 201.398438 221.878906 L 198.964844 205.191406 L 236.71875 242.6875 L 208.515625 206.925781 " fill-opacity="1" fill-rule="nonzero"/></svg>