<svg xmlns="http://www.w3.org/2000/svg" xmlns:xlink="http://www.w3.org/1999/xlink" width="500" zoomAndPan="magnify" viewBox="0 0 375 374.999991" height="500" preserveAspectRatio="xMidYMid meet" version="1.0"><defs><clipPath id="ca2d584006"><path d="M 251.503906 4.109375 L 353.503906 4.109375 L 353.503906 113 L 251.503906 113 Z M 251.503906 4.109375 " clip-rule="nonzero"/></clipPath><clipPath id="7d14772f4c"><path d="M 276 169 L 329 169 L 329 190.109375 L 276 190.109375 Z M 276 169 " clip-rule="nonzero"/></clipPath><clipPath id="61feb54535"><path d="M 10 63.992188 L 265.585938 63.992188 L 265.585938 310.742188 L 10 310.742188 Z M 10 63.992188 " clip-rule="nonzero"/></clipPath></defs><g clip-path="url(#ca2d584006)"><path fill="#37cc65" d="M 353.503906 74.785156 L 327.996094 39.457031 L 302.503906 4.125 L 277.011719 39.457031 L 251.503906 74.785156 L 276.878906 74.785156 L 276.878906 112.3125 L 328.128906 112.3125 L 328.128906 74.785156 Z M 353.503906 74.785156 " fill-opacity="1" fill-rule="nonzero"/></g><path fill="#37aa65" d="M 276.878906 117.863281 L 328.128906 117.863281 L 328.128906 138.316406 L 276.878906 138.316406 Z M 276.878906 117.863281 " fill-opacity="1" fill-rule="nonzero"/><path fill="#226a3f" d="M 276.878906 143.75 L 276.878906 164.203125 L 328.128906 164.203125 L 328.128906 143.75 Z M 276.878906 143.75 " fill-opacity="1" fill-rule="nonzero"/><g clip-path="url(#7d14772f4c)"><path fill="#1a502f" d="M 276.878906 169.636719 L 328.128906 169.636719 L 328.128906 190.089844 L 276.878906 190.089844 Z M 276.878906 169.636719 " fill-opacity="1" fill-rule="nonzero"/></g><g clip-path="url(#61feb54535)"><path fill="#ab1717" d="M 222.496094 192.820312 L 252.953125 191.078125 L 229.433594 176.84375 L 265.558594 154.835938 L 221.71875 144.222656 L 249.9375 122.847656 L 216.164062 125.304688 L 235.121094 89.265625 L 188.972656 116.265625 L 191.207031 83.492188 L 170.707031 108.460938 L 156.566406 63.992188 L 133.480469 111.894531 L 122.277344 77.914062 L 117.878906 113.539062 L 86.589844 72.234375 L 86.097656 125.457031 L 29.855469 105.609375 L 62.824219 155.371094 L 30.820312 152.625 L 54.898438 173.832031 L 10.289062 188.796875 L 57.339844 214.921875 L 20.3125 227.132812 L 60.835938 234.484375 L 19.367188 273.710938 L 80.285156 260.667969 L 72.910156 300.980469 L 104.722656 265.03125 L 119.40625 310.886719 L 144.882812 262.214844 L 160.996094 295.160156 L 172.207031 262.070312 L 213.761719 302.464844 L 201.382812 245.683594 L 233.441406 259.03125 L 219.957031 226.910156 L 265.371094 228.601562 Z M 213.929688 207.554688 L 176.605469 215.996094 L 182.078125 246.105469 L 146.3125 223.191406 L 123.394531 264.683594 L 112.171875 229.628906 L 79.625 244.863281 L 92.5625 211.335938 L 54.425781 192.847656 L 98.179688 176.363281 L 74.234375 140.226562 L 110.832031 149.523438 L 111.0625 123.714844 L 132.890625 149.433594 L 152.320312 113.976562 L 165.117188 148.683594 L 193.8125 130.4375 L 184.949219 163.953125 L 217.847656 165.644531 L 190.324219 187.136719 Z M 213.929688 207.554688 " fill-opacity="1" fill-rule="nonzero"/></g></svg>