<svg xmlns="http://www.w3.org/2000/svg" xmlns:xlink="http://www.w3.org/1999/xlink" width="500" zoomAndPan="magnify" viewBox="0 0 375 374.999991" height="500" preserveAspectRatio="xMidYMid meet" version="1.0"><defs><clipPath id="cd02edce30"><path d="M 63.28125 1 L 311.53125 1 L 311.53125 374 L 63.28125 374 Z M 63.28125 1 " clip-rule="nonzero"/></clipPath></defs><rect x="-37.5" width="450" fill="#ffffff" y="-37.499999" height="449.999989" fill-opacity="1"/><rect x="-37.5" width="450" fill="#ffffff" y="-37.499999" height="449.999989" fill-opacity="1"/><rect x="-37.5" width="450" fill="#126d1d" y="-37.499999" height="449.999989" fill-opacity="1"/><g clip-path="url(#cd02edce30)"><path fill="#000000" d="M 311.464844 187.5 L 284.296875 180.175781 L 288.652344 186.511719 L 242.890625 186.511719 C 242.890625 183.949219 243.027344 181.386719 243.207031 178.871094 C 244.148438 169.164062 246.707031 160.488281 250.523438 154.199219 C 251.421875 152.714844 251.601562 150.828125 250.972656 149.210938 C 250.882812 148.9375 250.75 148.714844 250.613281 148.488281 C 253.578125 142.289062 257.394531 137.121094 262.066406 133.613281 C 263.011719 48.449219 189.226562 9.664062 214.195312 2.382812 C 203.640625 0 202.203125 2.246094 205.4375 8.359375 L 98.824219 186.511719 L 89.484375 186.511719 C 87.597656 184.535156 86.070312 182.242188 84.949219 179.726562 L 81.757812 179.726562 C 82.792969 182.195312 84.050781 184.398438 85.621094 186.511719 L 83.375 186.511719 C 81.488281 184.535156 79.960938 182.242188 78.839844 179.726562 L 75.605469 179.726562 C 76.640625 182.195312 77.898438 184.398438 79.46875 186.511719 L 77.269531 186.511719 C 75.382812 184.535156 73.855469 182.242188 72.730469 179.726562 L 69.5 179.726562 C 70.53125 182.195312 71.789062 184.398438 73.359375 186.511719 L 71.117188 186.511719 C 69.230469 184.535156 67.703125 182.242188 66.578125 179.726562 L 63.347656 179.726562 C 64.378906 182.195312 65.636719 184.398438 67.207031 186.511719 L 63.347656 186.511719 L 63.347656 188.488281 L 67.207031 188.488281 C 65.636719 190.601562 64.425781 192.804688 63.347656 195.273438 L 66.578125 195.273438 C 67.65625 192.757812 69.230469 190.464844 71.117188 188.488281 L 73.359375 188.488281 C 71.789062 190.601562 70.578125 192.804688 69.5 195.273438 L 72.730469 195.273438 C 73.808594 192.757812 75.382812 190.464844 77.269531 188.488281 L 79.46875 188.488281 C 77.898438 190.601562 76.683594 192.804688 75.605469 195.273438 L 78.839844 195.273438 C 79.917969 192.757812 81.488281 190.464844 83.375 188.488281 L 85.621094 188.488281 C 84.050781 190.601562 82.835938 192.804688 81.757812 195.273438 L 84.992188 195.273438 C 86.070312 192.757812 87.640625 190.464844 89.527344 188.488281 L 98.824219 188.488281 L 205.390625 366.640625 C 202.160156 372.753906 203.640625 375 214.148438 372.617188 C 189.226562 365.335938 262.964844 326.550781 262.023438 241.386719 C 257.351562 237.925781 253.535156 232.757812 250.570312 226.511719 C 250.703125 226.285156 250.792969 226.0625 250.929688 225.789062 C 251.558594 224.171875 251.421875 222.285156 250.480469 220.800781 C 246.664062 214.511719 244.101562 205.792969 243.160156 196.128906 C 242.980469 193.613281 242.847656 191.050781 242.847656 188.488281 L 288.609375 188.488281 L 284.25 194.824219 Z M 206.558594 10.425781 C 217.605469 28.808594 258.382812 74.019531 247.382812 132.671875 C 244.867188 136.714844 242.667969 140.671875 240.691406 144.535156 C 239.027344 144.847656 237.589844 145.839844 236.738281 147.367188 C 225.960938 166.828125 223.222656 183.140625 222.773438 186.511719 L 101.203125 186.511719 Z M 206.558594 364.574219 L 101.203125 188.488281 L 222.773438 188.488281 C 223.222656 191.816406 225.960938 208.128906 236.738281 227.679688 C 237.589844 229.207031 239.027344 230.195312 240.691406 230.511719 C 242.667969 234.375 244.867188 238.328125 247.382812 242.375 C 258.382812 300.980469 217.605469 346.191406 206.558594 364.574219 Z M 206.558594 364.574219 " fill-opacity="1" fill-rule="nonzero"/></g></svg>