<svg xmlns="http://www.w3.org/2000/svg" xmlns:xlink="http://www.w3.org/1999/xlink" width="500" zoomAndPan="magnify" viewBox="0 0 375 374.999991" height="500" preserveAspectRatio="xMidYMid meet" version="1.0"><defs><clipPath id="bcab671394"><path d="M 251.503906 4.109375 L 353.503906 4.109375 L 353.503906 113 L 251.503906 113 Z M 251.503906 4.109375 " clip-rule="nonzero"/></clipPath><clipPath id="4fe921dab2"><path d="M 276 169 L 329 169 L 329 190.109375 L 276 190.109375 Z M 276 169 " clip-rule="nonzero"/></clipPath><clipPath id="159394e713"><path d="M 38 38.488281 L 218 38.488281 L 218 329 L 38 329 Z M 38 38.488281 " clip-rule="nonzero"/></clipPath></defs><g clip-path="url(#bcab671394)"><path fill="#37cc65" d="M 353.503906 74.785156 L 327.996094 39.457031 L 302.503906 4.125 L 277.011719 39.457031 L 251.503906 74.785156 L 276.878906 74.785156 L 276.878906 112.3125 L 328.128906 112.3125 L 328.128906 74.785156 Z M 353.503906 74.785156 " fill-opacity="1" fill-rule="nonzero"/></g><path fill="#37aa65" d="M 276.878906 117.863281 L 328.128906 117.863281 L 328.128906 138.316406 L 276.878906 138.316406 Z M 276.878906 117.863281 " fill-opacity="1" fill-rule="nonzero"/><path fill="#226a3f" d="M 276.878906 143.75 L 276.878906 164.203125 L 328.128906 164.203125 L 328.128906 143.75 Z M 276.878906 143.75 " fill-opacity="1" fill-rule="nonzero"/><g clip-path="url(#4fe921dab2)"><path fill="#1a502f" d="M 276.878906 169.636719 L 328.128906 169.636719 L 328.128906 190.089844 L 276.878906 190.089844 Z M 276.878906 169.636719 " fill-opacity="1" fill-rule="nonzero"/></g><path fill="#f5bc8f" d="M 81.800781 53.886719 L 70.089844 97.433594 C 69.609375 99.167969 67.902344 100.285156 66.128906 100.011719 L 60.503906 99.148438 C 58.523438 98.871094 53.046875 100.433594 50.691406 102.417969 C 47.441406 105.140625 45.550781 108.472656 45.320312 111.425781 L 41.949219 153.558594 C 41.3125 161.492188 42.390625 166.640625 45.925781 170.96875 L 88.242188 222.402344 C 88.828125 223.121094 89.105469 224.070312 89.019531 224.996094 L 79.902344 324.683594 C 110.210938 340.019531 156.972656 341.332031 187.800781 323.863281 L 178.386719 224.617188 C 178.261719 223.199219 178.957031 221.851562 180.179688 221.175781 C 182.035156 220.140625 183.65625 218.855469 185.046875 217.398438 C 188.796875 213.453125 191.050781 208.179688 191.957031 202.710938 L 197.621094 168.152344 L 213.667969 107.792969 C 215.078125 102.578125 213.164062 96.613281 208.507812 92.304688 C 200.375 86.863281 195.234375 85.875 186.5625 88.359375 C 184.347656 89.015625 182.121094 87.386719 182.03125 85.066406 C 181.886719 80.699219 180.914062 77.558594 177.863281 74.792969 C 173.058594 70.46875 166.335938 68.652344 160 70.003906 C 158.210938 70.398438 156.53125 71.039062 154.984375 71.882812 C 152.984375 72.980469 150.5 71.925781 149.890625 69.726562 C 149.003906 66.667969 147.257812 63.804688 144.683594 61.5 C 139.824219 57.195312 132.992188 55.421875 126.570312 56.6875 C 125.035156 57.003906 123.582031 57.59375 122.382812 58.121094 C 120.210938 59.09375 117.722656 57.851562 117.34375 55.507812 C 116.777344 52.070312 114.480469 49.070312 112.539062 47.34375 C 108.914062 44.089844 104.183594 42.238281 96.195312 43.035156 C 88.207031 43.84375 83.335938 48.214844 81.800781 53.886719 Z M 81.800781 53.886719 " fill-opacity="1" fill-rule="nonzero"/><g clip-path="url(#159394e713)"><path fill="#082651" d="M 99.472656 38.546875 C 97.597656 38.484375 95.679688 38.648438 93.808594 39.054688 C 86.328125 40.636719 80.285156 45.886719 78.371094 52.957031 L 66.660156 96.484375 L 63.011719 95.9375 C 57.894531 95.175781 51.851562 96.800781 48.417969 99.691406 C 44.628906 102.878906 42.140625 106.949219 41.804688 111.121094 L 38.414062 153.277344 C 37.78125 161.679688 38.984375 168.03125 43.214844 173.195312 L 85.488281 224.675781 L 76.390625 324.339844 C 75.65625 329.929688 84.1875 330.738281 84.476562 325.101562 L 93.394531 227.453125 L 105.671875 227.453125 C 111.132812 227.523438 111.132812 219.292969 105.671875 219.335938 L 91.601562 219.335938 L 49.492188 168.046875 C 46.648438 164.613281 45.933594 161.40625 46.5 153.933594 L 49.8125 112.375 C 50.3125 105.707031 57.480469 103.300781 62.300781 104.039062 L 118.300781 112.414062 C 122.195312 113.46875 125.335938 116.757812 126.324219 121.550781 C 127.355469 126.359375 125.882812 131.761719 122.601562 135.425781 C 119.609375 138.765625 115.816406 139.375 110.488281 139.398438 L 76.074219 136.757812 C 70.804688 136.375 70.550781 144.609375 75.820312 144.878906 L 123.796875 148.550781 C 134.042969 149.332031 145.597656 164.417969 135.535156 187.078125 C 133.027344 192.136719 140.882812 195.601562 142.925781 190.347656 C 149.140625 176.425781 148.316406 163.550781 143.621094 154.351562 C 147.621094 155.265625 151.816406 155.183594 155.667969 154.351562 C 158.804688 153.675781 161.648438 152.328125 164.074219 150.492188 C 165.277344 153.324219 167.125 155.9375 169.511719 158.089844 C 175.179688 163.195312 183.058594 165.304688 190.488281 163.726562 C 191.835938 163.425781 193.183594 162.964844 194.445312 162.433594 L 193.144531 167.371094 L 187.433594 201.957031 C 186.65625 206.703125 184.714844 211.132812 181.746094 214.253906 C 178.816406 217.378906 174.945312 219.34375 169.277344 219.34375 L 157.101562 219.34375 C 151.6875 219.34375 151.6875 227.460938 157.101562 227.460938 L 169.277344 227.460938 C 176.964844 227.460938 183.300781 224.425781 187.644531 219.84375 C 191.984375 215.292969 194.445312 209.316406 195.433594 203.285156 L 201.078125 168.917969 L 217.128906 108.722656 C 218.921875 102.015625 216.414062 94.613281 210.742188 89.507812 C 201.921875 83.53125 195.097656 82.203125 185.597656 84.949219 C 185.429688 80.011719 184.101562 75.644531 180.246094 72.164062 C 174.601562 67.058594 166.726562 64.949219 159.265625 66.53125 C 157.144531 66.996094 155.136719 67.773438 153.308594 68.789062 C 152.253906 65.074219 150.128906 61.59375 147.050781 58.851562 C 141.320312 53.761719 133.363281 51.65625 125.839844 53.214844 C 124.070312 53.59375 122.402344 54.179688 120.828125 54.945312 C 120.089844 50.382812 117.285156 46.800781 114.910156 44.671875 C 110.660156 40.851562 105.113281 38.71875 99.472656 38.546875 Z M 112.679688 58.972656 L 101.035156 101.613281 L 74.769531 97.691406 L 86.242188 55.050781 C 87.296875 51.144531 90.644531 47.894531 95.488281 46.96875 C 103.265625 45.492188 114.722656 51.503906 112.679688 58.972656 Z M 131.253906 60.871094 C 135.023438 60.765625 138.988281 62.199219 141.53125 64.878906 C 146.902344 70.53125 145.875 74.519531 143.960938 80.429688 L 132.644531 115.15625 C 130.226562 109.96875 125.863281 105.976562 120.382812 104.503906 C 120.238281 104.457031 120.09375 104.4375 119.945312 104.417969 L 109.140625 102.8125 L 118.242188 69.230469 C 120.074219 62.457031 125.234375 61.019531 131.253906 60.871094 Z M 178.777344 89.792969 L 163.1875 138.359375 C 161.945312 142.222656 158.800781 145.40625 154.003906 146.425781 C 148.867188 147.523438 142.925781 146.59375 139.617188 143.59375 C 135.953125 140.304688 134.628906 135.933594 135.675781 132.015625 L 151.726562 82.75 C 153.242188 78.039062 157.160156 74.960938 160.972656 74.453125 C 170.601562 73.171875 181.257812 82.078125 178.777344 89.792969 Z M 195.136719 91.488281 C 198.867188 91.421875 202.574219 93.070312 205.308594 95.539062 C 208.933594 98.828125 210.199219 103.320312 209.316406 106.628906 L 197.835938 149.695312 C 196.320312 152.648438 193.390625 154.925781 189.433594 155.75 C 184.632812 156.785156 178.601562 155.347656 174.960938 152.058594 C 171.316406 148.765625 169.96875 144.359375 171.019531 140.453125 L 185.214844 96.144531 C 186.542969 91.929688 191.328125 91.566406 195.136719 91.488281 Z M 195.136719 91.488281 " fill-opacity="1" fill-rule="nonzero"/></g><path fill="#082651" d="M 175.296875 241.046875 L 183.976562 325.164062 C 184.527344 330.542969 192.570312 329.703125 192.027344 324.320312 L 183.371094 240.203125 C 182.734375 233.984375 174.769531 235.988281 175.296875 241.046875 Z M 175.296875 241.046875 " fill-opacity="1" fill-rule="nonzero"/></svg>