<svg xmlns="http://www.w3.org/2000/svg" xmlns:xlink="http://www.w3.org/1999/xlink" width="500" zoomAndPan="magnify" viewBox="0 0 375 374.999991" height="500" preserveAspectRatio="xMidYMid meet" version="1.0"><defs><clipPath id="647a563784"><path d="M 83 0 L 374.71875 0 L 374.71875 293 L 83 293 Z M 83 0 " clip-rule="nonzero"/></clipPath><clipPath id="8d4496c9ac"><path d="M 0.46875 268 L 108 268 L 108 375 L 0.46875 375 Z M 0.46875 268 " clip-rule="nonzero"/></clipPath><clipPath id="c2936c2395"><path d="M 105 0 L 374.71875 0 L 374.71875 270 L 105 270 Z M 105 0 " clip-rule="nonzero"/></clipPath></defs><path fill="#ff4646" d="M 368.574219 19.8125 L 119.878906 268.882812 L 136.777344 286.03125 L 365.0625 85.984375 Z M 368.574219 19.8125 " fill-opacity="1" fill-rule="evenodd"/><path fill="#ff4646" d="M 113.511719 262.726562 L 362.207031 13.660156 L 297.015625 17.835938 L 97.269531 246.238281 Z M 113.511719 262.726562 " fill-opacity="1" fill-rule="evenodd"/><path fill="#ff4646" d="M 101 302.515625 L 80.804688 282.292969 L 34.710938 328.457031 C 33.175781 329.996094 30.101562 329.996094 28.566406 328.457031 L 24.394531 324.28125 C 22.636719 322.519531 19.785156 322.519531 18.027344 324.28125 L 14.738281 327.578125 L 55.78125 368.6875 L 59.074219 365.386719 C 60.832031 363.628906 60.832031 360.773438 59.074219 358.792969 L 54.90625 354.835938 C 54.027344 353.957031 53.589844 352.859375 53.589844 351.757812 C 53.589844 350.441406 54.027344 349.339844 54.90625 348.679688 Z M 101 302.515625 " fill-opacity="1" fill-rule="evenodd"/><path fill="#ff4646" d="M 44.589844 233.710938 L 149.289062 338.570312 L 163.121094 324.941406 L 58.417969 220.082031 Z M 44.589844 233.710938 " fill-opacity="1" fill-rule="evenodd"/><g clip-path="url(#647a563784)"><path fill="#353535" d="M 133.046875 292.84375 C 131.949219 292.84375 130.632812 292.40625 129.972656 291.523438 L 84.316406 246.019531 C 82.78125 244.261719 82.78125 241.625 84.316406 239.863281 L 287.796875 6.84375 C 288.675781 5.964844 289.773438 5.523438 290.871094 5.304688 L 369.671875 0.46875 C 370.769531 0.46875 372.085938 0.910156 372.960938 1.789062 C 373.839844 2.667969 374.28125 3.765625 374.28125 5.085938 L 370.109375 84.664062 C 370.109375 85.761719 369.449219 87.082031 368.574219 87.742188 L 135.902344 291.746094 C 135.023438 292.40625 133.925781 292.84375 133.046875 292.84375 Z M 93.539062 242.722656 L 133.265625 282.292969 L 361.328125 82.464844 L 365.28125 9.703125 L 293.285156 14.097656 Z M 93.539062 242.722656 " fill-opacity="1" fill-rule="evenodd"/></g><path fill="#353535" d="M 145.777344 345.605469 C 144.460938 345.605469 143.363281 345.164062 142.707031 344.285156 L 31.636719 233.269531 C 30.980469 232.390625 30.320312 231.292969 30.320312 230.191406 C 30.320312 228.875 30.980469 227.773438 31.636719 226.894531 L 51.613281 206.890625 C 53.367188 205.351562 56.222656 205.351562 57.976562 206.890625 L 168.828125 318.125 C 170.582031 319.664062 170.582031 322.519531 168.828125 324.28125 L 148.851562 344.285156 C 147.972656 345.164062 146.875 345.605469 145.777344 345.605469 Z M 41.078125 230.191406 L 145.777344 335.050781 L 159.386719 321.203125 L 54.90625 216.34375 Z M 41.078125 230.191406 " fill-opacity="1" fill-rule="evenodd"/><g clip-path="url(#8d4496c9ac)"><path fill="#353535" d="M 52.050781 375.71875 C 50.953125 375.71875 49.855469 375.28125 48.980469 374.402344 L 1.785156 326.917969 C 0.90625 326.257812 0.46875 324.941406 0.46875 323.839844 C 0.46875 322.742188 0.90625 321.640625 1.785156 320.761719 L 8.152344 314.386719 C 10.566406 311.96875 13.859375 310.429688 17.589844 310.429688 C 21.101562 310.429688 24.394531 311.96875 27.027344 314.386719 L 27.90625 315.488281 L 74 269.324219 C 75.539062 267.785156 78.609375 267.785156 80.148438 269.324219 L 106.488281 295.703125 C 108.242188 297.460938 108.242188 300.320312 106.488281 301.855469 L 60.613281 348.023438 L 61.488281 348.902344 C 66.757812 354.175781 66.757812 362.75 61.488281 368.027344 L 55.125 374.402344 C 54.246094 375.28125 53.148438 375.71875 52.050781 375.71875 Z M 11.003906 323.839844 L 52.050781 364.949219 L 55.34375 361.652344 C 57.101562 359.894531 57.101562 357.035156 55.34375 355.277344 L 51.171875 351.097656 C 50.515625 350.21875 49.855469 349.121094 49.855469 348.023438 C 49.855469 346.921875 50.515625 345.824219 51.171875 344.945312 L 97.269531 298.78125 L 77.074219 278.554688 L 30.980469 324.71875 C 29.441406 326.257812 26.589844 326.257812 24.832031 324.71875 L 20.882812 320.542969 C 19.125 318.785156 16.054688 318.785156 14.296875 320.542969 Z M 11.003906 323.839844 " fill-opacity="1" fill-rule="evenodd"/></g><g clip-path="url(#c2936c2395)"><path fill="#353535" d="M 110 269.761719 C 108.683594 269.761719 107.585938 269.324219 106.707031 268.441406 C 105.171875 266.683594 105.171875 263.828125 106.707031 262.066406 L 366.816406 1.789062 C 368.574219 0.03125 371.207031 0.03125 372.960938 1.789062 C 374.71875 3.546875 374.71875 6.183594 372.960938 7.941406 L 113.074219 268.441406 C 112.195312 269.324219 111.097656 269.761719 110 269.761719 Z M 110 269.761719 " fill-opacity="1" fill-rule="evenodd"/></g></svg>