<svg xmlns="http://www.w3.org/2000/svg" xmlns:xlink="http://www.w3.org/1999/xlink" width="500" zoomAndPan="magnify" viewBox="0 0 375 374.999991" height="500" preserveAspectRatio="xMidYMid meet" version="1.0"><defs><clipPath id="4f56984d0c"><path d="M 67.105469 0 L 296 0 L 296 375 L 67.105469 375 Z M 67.105469 0 " clip-rule="nonzero"/></clipPath></defs><rect x="-37.5" width="450" fill="#ffffff" y="-37.499999" height="449.999989" fill-opacity="1"/><rect x="-37.5" width="450" fill="#ffffff" y="-37.499999" height="449.999989" fill-opacity="1"/><rect x="-37.5" width="450" fill="#a81818" y="-37.499999" height="449.999989" fill-opacity="1"/><g clip-path="url(#4f56984d0c)"><path fill="#000000" d="M 258.476562 0 C 252.871094 36.9375 210.355469 50.5 189.800781 55.175781 L 189.800781 30.394531 L 188.398438 30.394531 C 188.398438 30.394531 181.855469 21.042969 181.855469 5.609375 C 181.855469 21.042969 175.316406 30.394531 175.316406 30.394531 L 173.914062 30.394531 L 173.914062 55.175781 C 153.359375 50.5 110.375 36.9375 105.238281 0 C 105.238281 0 67.859375 21.976562 67.859375 87.4375 C 67.859375 152.898438 105.238281 174.875 105.238281 174.875 C 110.84375 137.9375 153.359375 124.375 173.914062 119.699219 L 173.914062 375 L 189.800781 375 L 189.800781 119.234375 C 210.355469 123.910156 253.339844 137.46875 258.476562 174.40625 C 258.476562 174.40625 295.855469 152.429688 295.855469 86.96875 C 295.855469 21.507812 258.476562 0 258.476562 0 Z M 258.476562 0 " fill-opacity="1" fill-rule="nonzero"/></g></svg>