<svg xmlns="http://www.w3.org/2000/svg" xmlns:xlink="http://www.w3.org/1999/xlink" width="500" zoomAndPan="magnify" viewBox="0 0 375 374.999991" height="500" preserveAspectRatio="xMidYMid meet" version="1.0"><rect x="-37.5" width="450" fill="#ffffff" y="-37.499999" height="449.999989" fill-opacity="1"/><rect x="-37.5" width="450" fill="#ffffff" y="-37.499999" height="449.999989" fill-opacity="1"/><rect x="-37.5" width="450" fill="#ffffff" y="-37.499999" height="449.999989" fill-opacity="1"/><path fill="#100f0d" d="M 314.941406 175.179688 C 313.832031 179.789062 312.878906 184.558594 311.914062 189.367188 C 305.863281 219.539062 300.148438 248.046875 254.167969 249.945312 C 216.210938 251.515625 196.09375 271.6875 186.09375 287.332031 L 174.96875 218.136719 C 185.628906 223.535156 199.464844 220.578125 206.957031 211.207031 L 245.648438 162.960938 C 254.464844 151.949219 252.785156 135.699219 241.890625 126.730469 L 207.761719 98.621094 C 243.347656 107.527344 299.125 120.535156 350.75 128.546875 C 337.605469 137.410156 320.304688 152.863281 314.941406 175.179688 Z M 171.210938 172.796875 L 171.210938 135.769531 L 189.09375 150.492188 Z M 88.914062 172.859375 L 70.976562 150.492188 L 88.871094 135.757812 Z M 180.625 355.050781 C 178.449219 358.046875 175.234375 360.027344 171.53125 360.613281 C 163.824219 361.859375 156.859375 356.570312 155.660156 349.101562 L 135.992188 226.433594 C 135.527344 223.511719 133 221.355469 130.03125 221.355469 C 127.0625 221.355469 124.535156 223.511719 124.066406 226.433594 L 104.402344 349.101562 C 103.203125 356.570312 96.570312 361.910156 88.488281 360.601562 C 84.828125 360.027344 81.609375 358.046875 79.433594 355.050781 C 77.257812 352.046875 76.386719 348.382812 76.976562 344.714844 L 100.9375 194.714844 L 100.9375 122.976562 C 100.9375 120.644531 99.589844 118.515625 97.476562 117.519531 C 95.371094 116.523438 92.867188 116.84375 91.058594 118.324219 L 58.703125 144.96875 C 56.15625 147.066406 55.765625 150.816406 57.828125 153.390625 L 84.230469 186.320312 C 86.546875 189.210938 87.597656 192.835938 87.191406 196.515625 C 86.785156 200.203125 84.96875 203.511719 82.066406 205.824219 C 76.238281 210.5 67.171875 209.464844 62.535156 203.664062 L 23.863281 155.417969 C 19.136719 149.527344 20.039062 140.835938 25.859375 136.039062 L 78.898438 92.367188 C 81.386719 90.316406 84.523438 89.191406 87.742188 89.191406 L 171.507812 89.191406 C 172.605469 89.492188 175.21875 90.199219 179.269531 91.28125 C 179.902344 91.648438 180.601562 91.890625 181.171875 92.363281 L 234.210938 136.039062 C 240.03125 140.835938 240.9375 149.527344 236.21875 155.417969 L 197.535156 203.664062 C 192.898438 209.464844 183.847656 210.5 178.007812 205.824219 C 175.105469 203.511719 173.289062 200.203125 172.882812 196.515625 C 172.476562 192.835938 173.523438 189.210938 175.839844 186.320312 L 202.242188 153.390625 C 204.308594 150.816406 203.917969 147.066406 201.371094 144.96875 L 169.011719 118.324219 C 167.207031 116.84375 164.707031 116.53125 162.59375 117.519531 C 160.484375 118.515625 159.132812 120.644531 159.132812 122.976562 L 159.210938 195.742188 L 177.214844 308.085938 C 177.21875 308.101562 177.21875 308.113281 177.21875 308.128906 L 183.085938 344.714844 C 183.675781 348.382812 182.800781 352.046875 180.625 355.050781 Z M 98.03125 43.160156 C 98.03125 26.035156 111.976562 12.109375 129.117188 12.109375 C 146.253906 12.109375 160.199219 26.035156 160.199219 43.160156 C 160.199219 60.28125 146.253906 74.210938 129.117188 74.210938 C 111.976562 74.210938 98.03125 60.28125 98.03125 43.160156 Z M 369.847656 119.117188 C 298.78125 109.601562 213.464844 87.851562 184.34375 80.140625 C 180.648438 78.207031 176.539062 77.125 172.332031 77.125 L 155.390625 77.125 C 165.589844 69.230469 172.277344 57.015625 172.277344 43.160156 C 172.277344 19.382812 152.914062 0.0390625 129.117188 0.0390625 C 105.316406 0.0390625 85.953125 19.382812 85.953125 43.160156 C 85.953125 57.015625 92.644531 69.230469 102.839844 77.125 L 87.742188 77.125 C 81.730469 77.125 75.867188 79.226562 71.21875 83.050781 L 18.179688 126.730469 C 7.289062 135.691406 5.605469 151.949219 14.429688 162.960938 L 53.109375 211.207031 C 60.59375 220.542969 74.363281 223.511719 85.019531 218.183594 L 65.050781 342.808594 C 63.945312 349.652344 65.578125 356.511719 69.648438 362.121094 C 73.71875 367.746094 79.734375 371.429688 86.546875 372.515625 C 100.835938 374.886719 114.078125 365.023438 116.328125 351.007812 L 130.03125 265.546875 L 143.730469 351.007812 C 145.761719 363.667969 156.539062 372.847656 169.347656 372.847656 C 170.726562 372.847656 172.117188 372.753906 173.472656 372.527344 C 180.324219 371.429688 186.34375 367.746094 190.410156 362.121094 C 194.484375 356.511719 196.117188 349.652344 195.011719 342.808594 L 189.367188 307.683594 C 191.546875 300.800781 205.476562 264.042969 254.664062 262.011719 C 310.125 259.710938 317.683594 222.027344 323.757812 191.738281 C 324.691406 187.078125 325.617188 182.460938 326.6875 177.992188 C 334.085938 147.214844 371.078125 130.796875 371.449219 130.628906 C 373.933594 129.550781 375.398438 126.949219 375.027344 124.265625 C 374.648438 121.582031 372.535156 119.476562 369.847656 119.117188 " fill-opacity="1" fill-rule="nonzero"/></svg>