<svg xmlns="http://www.w3.org/2000/svg" xmlns:xlink="http://www.w3.org/1999/xlink" width="500" zoomAndPan="magnify" viewBox="0 0 375 374.999991" height="500" preserveAspectRatio="xMidYMid meet" version="1.0"><defs><clipPath id="c0e1b3b929"><path d="M 297 0 L 357.328125 0 L 357.328125 63 L 297 63 Z M 297 0 " clip-rule="nonzero"/></clipPath></defs><rect x="-37.5" width="450" fill="#ffffff" y="-37.499999" height="449.999989" fill-opacity="1"/><rect x="-37.5" width="450" fill="#ffffff" y="-37.499999" height="449.999989" fill-opacity="1"/><rect x="-37.5" width="450" fill="#3462eb" y="-37.499999" height="449.999989" fill-opacity="1"/><path fill="#030303" d="M 139.082031 234.132812 C 141.816406 232.96875 141.078125 233.289062 143.808594 232.691406 L 142.65625 240.074219 L 149.78125 238.035156 L 149.3125 242.796875 L 144.183594 244.347656 L 138.273438 238.980469 Z M 275.765625 89.867188 L 276.980469 103.148438 C 273.378906 104.554688 268.066406 105.511719 265.4375 103.074219 L 262.273438 100.34375 L 262.066406 90.261719 Z M 264.929688 66.195312 C 264.914062 66.507812 265.117188 66.742188 264.921875 67.136719 C 264.726562 67.519531 264.910156 67.851562 264.933594 68.058594 C 264.953125 68.261719 264.957031 68.707031 264.988281 68.949219 L 266.289062 73.65625 C 267.378906 76.710938 268.304688 78.355469 268.472656 80.910156 C 262.507812 84.074219 258.238281 83.410156 251.214844 81.558594 C 254.015625 88.910156 256.480469 95.121094 253.40625 102.210938 C 249.582031 101.226562 247.488281 101.578125 243.453125 103.023438 C 243.992188 106.789062 245.515625 108.769531 245.667969 113.722656 C 242.078125 116.703125 238.492188 114.714844 235.972656 120.390625 C 233.089844 126.890625 238.050781 123.214844 230.1875 132.136719 C 223.285156 139.972656 155.394531 219.417969 148.347656 224.039062 L 131.644531 227.425781 C 130.996094 231.6875 131.382812 236.175781 128.742188 239.03125 C 121.042969 247.359375 128.695312 243.203125 127.175781 249.714844 C 127.058594 249.949219 71.371094 314.839844 62.742188 320.71875 C 59.113281 323.191406 52.246094 325.398438 50.867188 326.882812 C 47.070312 330.964844 52.109375 333.5 45.355469 338.003906 C 40.546875 341.210938 37.019531 340.359375 32.34375 341.445312 C 31.917969 344.496094 31.089844 355.917969 29.964844 358.183594 C 26.484375 365.164062 17.578125 368.179688 32.007812 374.878906 C 37.695312 371.113281 37.195312 367.367188 43.902344 365.863281 C 47.238281 365.117188 53.554688 363.519531 55.933594 363.660156 C 57.402344 358.691406 56.046875 354.539062 58.308594 350.035156 C 62.746094 341.207031 67.148438 347.015625 69.621094 341.621094 C 73.726562 332.664062 69.070312 332.105469 85.695312 313.707031 C 102.597656 295 119.175781 274.519531 136.457031 256.441406 C 144.558594 257.957031 141.015625 259.492188 145.46875 253.511719 C 147.507812 250.773438 153.019531 250.613281 156.648438 249.46875 L 158.132812 236.136719 C 158.117188 235.90625 158.066406 235.582031 158.046875 235.351562 C 158.019531 235.03125 157.894531 234.101562 157.871094 233.800781 C 157.503906 229.03125 169.988281 217.730469 174.425781 212.675781 L 242.363281 135.582031 C 246.417969 130.96875 246.132812 136.363281 251.222656 131.460938 C 254.902344 127.914062 252.671875 125.640625 254.695312 121.917969 C 260.570312 121.335938 261.445312 123.15625 266.222656 122.957031 L 266.605469 111.589844 C 273.445312 111.144531 278.054688 108.878906 285.960938 113 C 285.507812 106.941406 281.050781 104.398438 284.804688 95.761719 C 287.925781 95.472656 287.972656 95.539062 291.757812 96.386719 L 299.894531 97.023438 C 295.738281 92.300781 296.25 91.15625 294.183594 87.964844 L 274.882812 70.890625 C 271.179688 69.027344 270.046875 69.835938 264.929688 66.191406 Z M 264.929688 66.195312 " fill-opacity="1" fill-rule="evenodd"/><g clip-path="url(#c0e1b3b929)"><path fill="#010101" d="M 310.46875 49.988281 C 312.027344 42.242188 327.207031 14.433594 335.625 21.445312 C 343.203125 28.359375 318.109375 47.785156 310.46875 49.988281 Z M 311.550781 15.789062 L 310.203125 29.777344 L 311.628906 31.628906 L 297.917969 49.957031 L 312.53125 62.703125 L 328.855469 46.742188 L 330.417969 47.550781 L 344.210938 44.085938 L 339.765625 38.246094 L 357.328125 23.238281 L 331.171875 0.125 L 318.390625 18.710938 L 311.550781 15.792969 Z M 311.550781 15.789062 " fill-opacity="1" fill-rule="evenodd"/></g><path fill="#010101" d="M 302.566406 93.183594 L 303.980469 78.914062 L 283.058594 60.417969 L 268.703125 63.6875 Z M 302.566406 93.183594 " fill-opacity="1" fill-rule="evenodd"/><path fill="#020202" d="M 331.304688 48.054688 C 329.488281 54.660156 329.207031 64.351562 328.308594 71.183594 L 341.542969 82.847656 L 344.953125 44.867188 Z M 331.304688 48.054688 " fill-opacity="1" fill-rule="evenodd"/><path fill="#020202" d="M 309.199219 29.527344 C 302.816406 32.183594 293.15625 33.695312 286.4375 35.457031 L 273.085938 23.6875 L 310.660156 15.460938 L 309.195312 29.527344 Z M 309.199219 29.527344 " fill-opacity="1" fill-rule="evenodd"/><path fill="#020202" d="M 305.480469 79.488281 C 311.867188 76.828125 320.882812 73.683594 327.613281 71.917969 L 340.980469 83.707031 L 303.492188 94.164062 Z M 305.480469 79.488281 " fill-opacity="1" fill-rule="evenodd"/><path fill="#020202" d="M 282.410156 59.222656 C 284.261719 52.488281 285.136719 43.132812 286.054688 36.171875 L 272.5625 24.28125 L 268.5 62.476562 Z M 282.410156 59.222656 " fill-opacity="1" fill-rule="evenodd"/></svg>