<svg xmlns="http://www.w3.org/2000/svg" xmlns:xlink="http://www.w3.org/1999/xlink" width="500" zoomAndPan="magnify" viewBox="0 0 375 374.999991" height="500" preserveAspectRatio="xMidYMid meet" version="1.0"><defs><clipPath id="88d33cb7fa"><path d="M 169 14.898438 L 206 14.898438 L 206 65 L 169 65 Z M 169 14.898438 " clip-rule="nonzero"/></clipPath><clipPath id="cff233e86b"><path d="M 289 14.898438 L 332 14.898438 L 332 65 L 289 65 Z M 289 14.898438 " clip-rule="nonzero"/></clipPath><clipPath id="ce725e497a"><path d="M 212 14.898438 L 254 14.898438 L 254 65 L 212 65 Z M 212 14.898438 " clip-rule="nonzero"/></clipPath><clipPath id="9effe10758"><path d="M 251 14.898438 L 301 14.898438 L 301 65 L 251 65 Z M 251 14.898438 " clip-rule="nonzero"/></clipPath><clipPath id="09eb52395b"><path d="M 282 341 L 293 341 L 293 359.898438 L 282 359.898438 Z M 282 341 " clip-rule="nonzero"/></clipPath><clipPath id="86444ef37e"><path d="M 82 285 L 157 285 L 157 359.898438 L 82 359.898438 Z M 82 285 " clip-rule="nonzero"/></clipPath><clipPath id="a617cf11d8"><path d="M 33.414062 212 L 341.664062 212 L 341.664062 225 L 33.414062 225 Z M 33.414062 212 " clip-rule="nonzero"/></clipPath><clipPath id="d07c4c324f"><path d="M 74 14.898438 L 124 14.898438 L 124 65 L 74 65 Z M 74 14.898438 " clip-rule="nonzero"/></clipPath><clipPath id="78f8a73f43"><path d="M 121 14.898438 L 163 14.898438 L 163 65 L 121 65 Z M 121 14.898438 " clip-rule="nonzero"/></clipPath><clipPath id="8562ef82df"><path d="M 43 14.898438 L 86 14.898438 L 86 65 L 43 65 Z M 43 14.898438 " clip-rule="nonzero"/></clipPath></defs><path fill="#17cab1" d="M 263.582031 168.917969 C 263.578125 168.917969 263.570312 168.917969 263.566406 168.917969 L 255.351562 168.917969 L 255.351562 199.71875 L 267.683594 199.71875 L 267.683594 168.917969 L 263.601562 168.917969 C 263.59375 168.917969 263.589844 168.917969 263.582031 168.917969 Z M 263.582031 168.917969 " fill-opacity="1" fill-rule="nonzero"/><path fill="#17cab1" d="M 138.21875 113.480469 C 128.144531 113.480469 119.1875 108.628906 113.558594 101.140625 C 107.929688 108.628906 98.96875 113.480469 88.898438 113.480469 C 86.785156 113.480469 84.726562 113.261719 82.734375 112.855469 L 82.734375 199.71875 L 95.0625 199.71875 L 95.0625 162.757812 C 95.0625 159.355469 97.824219 156.597656 101.226562 156.597656 L 175.207031 156.597656 C 178.613281 156.597656 181.375 159.355469 181.375 162.757812 L 181.375 199.71875 L 193.703125 199.71875 L 193.703125 162.757812 C 193.703125 159.355469 196.464844 156.597656 199.867188 156.597656 L 209.03125 156.597656 L 212.28125 137.109375 C 212.84375 133.753906 216.023438 131.484375 219.375 132.042969 C 222.734375 132.601562 225.003906 135.777344 224.445312 139.132812 L 221.53125 156.597656 L 224.527344 156.597656 C 227.933594 156.597656 230.695312 159.355469 230.695312 162.757812 L 230.695312 199.71875 L 243.023438 199.71875 L 243.023438 162.757812 C 243.023438 159.355469 245.785156 156.597656 249.1875 156.597656 L 258.351562 156.597656 L 261.601562 137.109375 C 262.160156 133.753906 265.339844 131.484375 268.695312 132.042969 C 272.054688 132.601562 274.324219 135.777344 273.765625 139.132812 L 270.851562 156.597656 L 273.847656 156.597656 C 277.253906 156.597656 280.011719 159.355469 280.011719 162.757812 L 280.011719 199.71875 L 292.34375 199.71875 L 292.34375 112.855469 C 290.351562 113.261719 288.289062 113.480469 286.179688 113.480469 C 276.105469 113.480469 267.148438 108.628906 261.519531 101.140625 C 255.890625 108.628906 246.929688 113.480469 236.859375 113.480469 C 226.785156 113.480469 217.828125 108.628906 212.199219 101.140625 C 206.570312 108.628906 197.609375 113.480469 187.539062 113.480469 C 177.464844 113.480469 168.507812 108.628906 162.878906 101.140625 C 157.25 108.628906 148.289062 113.480469 138.21875 113.480469 Z M 138.21875 113.480469 " fill-opacity="1" fill-rule="nonzero"/><path fill="#17cab1" d="M 187.539062 101.160156 C 197.738281 101.160156 206.035156 92.871094 206.035156 82.679688 L 206.035156 76.523438 L 169.042969 76.523438 L 169.042969 82.679688 C 169.042969 92.871094 177.339844 101.160156 187.539062 101.160156 Z M 187.539062 101.160156 " fill-opacity="1" fill-rule="nonzero"/><path fill="#17cab1" d="M 107.394531 82.679688 L 107.394531 76.523438 L 70.402344 76.523438 L 70.402344 82.679688 C 70.402344 92.871094 78.699219 101.160156 88.898438 101.160156 C 99.097656 101.160156 107.394531 92.871094 107.394531 82.679688 Z M 107.394531 82.679688 " fill-opacity="1" fill-rule="nonzero"/><g clip-path="url(#88d33cb7fa)"><path fill="#17cab1" d="M 200.453125 14.921875 L 174.621094 14.921875 L 169.691406 64.203125 L 205.386719 64.203125 Z M 200.453125 14.921875 " fill-opacity="1" fill-rule="nonzero"/></g><path fill="#17cab1" d="M 214.265625 168.917969 C 214.257812 168.917969 214.25 168.917969 214.246094 168.917969 L 206.035156 168.917969 L 206.035156 199.71875 L 218.363281 199.71875 L 218.363281 168.917969 L 214.28125 168.917969 C 214.273438 168.917969 214.269531 168.917969 214.265625 168.917969 Z M 214.265625 168.917969 " fill-opacity="1" fill-rule="nonzero"/><path fill="#17cab1" d="M 107.394531 168.917969 L 169.042969 168.917969 L 169.042969 199.71875 L 107.394531 199.71875 Z M 107.394531 168.917969 " fill-opacity="1" fill-rule="nonzero"/><path fill="#17cab1" d="M 317.003906 91.921875 C 317.003906 97.015625 321.152344 101.160156 326.25 101.160156 C 331.351562 101.160156 335.5 97.015625 335.5 91.921875 L 335.5 76.523438 L 317.003906 76.523438 Z M 317.003906 91.921875 " fill-opacity="1" fill-rule="nonzero"/><path fill="#17cab1" d="M 156.714844 82.679688 L 156.714844 76.523438 L 119.722656 76.523438 L 119.722656 82.679688 C 119.722656 92.871094 128.019531 101.160156 138.21875 101.160156 C 148.417969 101.160156 156.714844 92.871094 156.714844 82.679688 Z M 156.714844 82.679688 " fill-opacity="1" fill-rule="nonzero"/><path fill="#17cab1" d="M 218.363281 82.679688 C 218.363281 92.871094 226.660156 101.160156 236.859375 101.160156 C 247.058594 101.160156 255.351562 92.871094 255.351562 82.679688 L 255.351562 76.523438 L 218.363281 76.523438 Z M 218.363281 82.679688 " fill-opacity="1" fill-rule="nonzero"/><g clip-path="url(#cff233e86b)"><path fill="#17cab1" d="M 331.6875 64.203125 L 307.027344 14.921875 L 289.988281 14.921875 L 314.648438 64.203125 Z M 331.6875 64.203125 " fill-opacity="1" fill-rule="nonzero"/></g><path fill="#17cab1" d="M 317.003906 111.394531 C 313.519531 109.734375 310.546875 107.175781 308.394531 104.011719 C 307.246094 105.207031 306 106.300781 304.671875 107.296875 L 304.671875 199.71875 L 317.003906 199.71875 Z M 317.003906 111.394531 " fill-opacity="1" fill-rule="nonzero"/><g clip-path="url(#ce725e497a)"><path fill="#17cab1" d="M 253.234375 64.203125 L 238.4375 14.921875 L 212.847656 14.921875 L 217.777344 64.203125 Z M 253.234375 64.203125 " fill-opacity="1" fill-rule="nonzero"/></g><g clip-path="url(#9effe10758)"><path fill="#17cab1" d="M 300.863281 64.203125 L 276.203125 14.921875 L 251.308594 14.921875 L 266.105469 64.203125 Z M 300.863281 64.203125 " fill-opacity="1" fill-rule="nonzero"/></g><path fill="#17cab1" d="M 304.671875 76.523438 L 267.683594 76.523438 L 267.683594 82.679688 C 267.683594 92.871094 275.980469 101.160156 286.179688 101.160156 C 296.375 101.160156 304.671875 92.871094 304.671875 82.679688 Z M 304.671875 76.523438 " fill-opacity="1" fill-rule="nonzero"/><path fill="#17cab1" d="M 58.074219 261.316406 L 317.003906 261.316406 L 317.003906 273.636719 L 58.074219 273.636719 Z M 58.074219 261.316406 " fill-opacity="1" fill-rule="nonzero"/><path fill="#17cab1" d="M 132.054688 322.914062 C 132.054688 323.722656 131.972656 324.523438 131.816406 325.316406 C 131.660156 326.109375 131.425781 326.878906 131.113281 327.628906 C 130.804688 328.375 130.425781 329.085938 129.976562 329.757812 C 129.527344 330.429688 129.015625 331.054688 128.441406 331.625 C 127.871094 332.195312 127.246094 332.707031 126.574219 333.15625 C 125.902344 333.605469 125.191406 333.984375 124.441406 334.296875 C 123.695312 334.605469 122.921875 334.839844 122.128906 334.996094 C 121.335938 335.152344 120.53125 335.234375 119.722656 335.234375 C 118.914062 335.234375 118.113281 335.152344 117.316406 334.996094 C 116.523438 334.839844 115.753906 334.605469 115.003906 334.296875 C 114.257812 333.984375 113.546875 333.605469 112.875 333.15625 C 112.199219 332.707031 111.578125 332.195312 111.003906 331.625 C 110.433594 331.054688 109.921875 330.429688 109.472656 329.757812 C 109.023438 329.085938 108.640625 328.375 108.332031 327.628906 C 108.023438 326.878906 107.789062 326.109375 107.628906 325.316406 C 107.472656 324.523438 107.394531 323.722656 107.394531 322.914062 C 107.394531 322.105469 107.472656 321.304688 107.628906 320.511719 C 107.789062 319.714844 108.023438 318.945312 108.332031 318.199219 C 108.640625 317.453125 109.023438 316.742188 109.472656 316.070312 C 109.921875 315.398438 110.433594 314.773438 111.003906 314.203125 C 111.578125 313.628906 112.199219 313.121094 112.875 312.671875 C 113.546875 312.222656 114.257812 311.839844 115.003906 311.53125 C 115.753906 311.222656 116.523438 310.988281 117.316406 310.832031 C 118.113281 310.671875 118.914062 310.59375 119.722656 310.59375 C 120.53125 310.59375 121.335938 310.671875 122.128906 310.832031 C 122.921875 310.988281 123.695312 311.222656 124.441406 311.53125 C 125.191406 311.839844 125.902344 312.222656 126.574219 312.671875 C 127.246094 313.121094 127.871094 313.628906 128.441406 314.203125 C 129.015625 314.773438 129.527344 315.398438 129.976562 316.070312 C 130.425781 316.742188 130.804688 317.453125 131.113281 318.199219 C 131.425781 318.945312 131.660156 319.714844 131.816406 320.511719 C 131.972656 321.304688 132.054688 322.105469 132.054688 322.914062 Z M 132.054688 322.914062 " fill-opacity="1" fill-rule="nonzero"/><g clip-path="url(#09eb52395b)"><path fill="#17cab1" d="M 285.234375 359.871094 L 292.34375 359.871094 L 292.34375 341.394531 L 282.152344 341.394531 Z M 285.234375 359.871094 " fill-opacity="1" fill-rule="nonzero"/></g><g clip-path="url(#86444ef37e)"><path fill="#17cab1" d="M 119.722656 285.953125 C 99.328125 285.953125 82.734375 302.535156 82.734375 322.914062 C 82.734375 343.292969 99.328125 359.871094 119.722656 359.871094 C 140.121094 359.871094 156.714844 343.292969 156.714844 322.914062 C 156.714844 302.535156 140.121094 285.953125 119.722656 285.953125 Z M 119.722656 347.554688 C 106.125 347.554688 95.0625 336.5 95.0625 322.914062 C 95.0625 309.328125 106.125 298.273438 119.722656 298.273438 C 133.320312 298.273438 144.382812 309.328125 144.382812 322.914062 C 144.382812 336.5 133.320312 347.554688 119.722656 347.554688 Z M 119.722656 347.554688 " fill-opacity="1" fill-rule="nonzero"/></g><path fill="#17cab1" d="M 169.042969 322.914062 C 169.042969 325 168.898438 327.054688 168.644531 329.074219 L 317.003906 329.074219 L 317.003906 316.753906 L 168.644531 316.753906 C 168.898438 318.773438 169.042969 320.828125 169.042969 322.914062 Z M 169.042969 322.914062 " fill-opacity="1" fill-rule="nonzero"/><path fill="#17cab1" d="M 165.429688 304.433594 L 317.003906 304.433594 L 317.003906 285.953125 L 152.292969 285.953125 C 157.996094 290.976562 162.527344 297.289062 165.429688 304.433594 Z M 165.429688 304.433594 " fill-opacity="1" fill-rule="nonzero"/><g clip-path="url(#a617cf11d8)"><path fill="#17cab1" d="M 33.414062 212.039062 L 341.664062 212.039062 L 341.664062 224.355469 L 33.414062 224.355469 Z M 33.414062 212.039062 " fill-opacity="1" fill-rule="nonzero"/></g><path fill="#17cab1" d="M 58.074219 236.675781 L 317.003906 236.675781 L 317.003906 248.996094 L 58.074219 248.996094 Z M 58.074219 236.675781 " fill-opacity="1" fill-rule="nonzero"/><g clip-path="url(#d07c4c324f)"><path fill="#17cab1" d="M 108.972656 64.203125 L 123.769531 14.921875 L 98.875 14.921875 L 74.214844 64.203125 Z M 108.972656 64.203125 " fill-opacity="1" fill-rule="nonzero"/></g><path fill="#17cab1" d="M 48.824219 101.160156 C 53.925781 101.160156 58.074219 97.015625 58.074219 91.921875 L 58.074219 76.523438 L 39.578125 76.523438 L 39.578125 91.921875 C 39.578125 97.015625 43.726562 101.160156 48.824219 101.160156 Z M 48.824219 101.160156 " fill-opacity="1" fill-rule="nonzero"/><path fill="#17cab1" d="M 58.074219 111.394531 L 58.074219 199.71875 L 70.402344 199.71875 L 70.402344 107.296875 C 69.078125 106.300781 67.832031 105.203125 66.683594 104.011719 C 64.53125 107.175781 61.558594 109.734375 58.074219 111.394531 Z M 58.074219 111.394531 " fill-opacity="1" fill-rule="nonzero"/><g clip-path="url(#78f8a73f43)"><path fill="#17cab1" d="M 157.300781 64.203125 L 162.230469 14.921875 L 136.640625 14.921875 L 121.84375 64.203125 Z M 157.300781 64.203125 " fill-opacity="1" fill-rule="nonzero"/></g><g clip-path="url(#8562ef82df)"><path fill="#17cab1" d="M 85.089844 14.921875 L 68.046875 14.921875 L 43.386719 64.203125 L 60.429688 64.203125 Z M 85.089844 14.921875 " fill-opacity="1" fill-rule="nonzero"/></g><path fill="#17cab1" d="M 87.152344 285.953125 L 58.074219 285.953125 L 58.074219 304.433594 L 74.015625 304.433594 C 76.917969 297.289062 81.449219 290.976562 87.152344 285.953125 Z M 87.152344 285.953125 " fill-opacity="1" fill-rule="nonzero"/><path fill="#17cab1" d="M 58.074219 316.753906 L 58.074219 329.074219 L 70.800781 329.074219 C 70.550781 327.054688 70.402344 325 70.402344 322.914062 C 70.402344 320.828125 70.550781 318.773438 70.800781 316.753906 Z M 58.074219 316.753906 " fill-opacity="1" fill-rule="nonzero"/></svg>