<svg xmlns="http://www.w3.org/2000/svg" xmlns:xlink="http://www.w3.org/1999/xlink" width="500" zoomAndPan="magnify" viewBox="0 0 375 374.999991" height="500" preserveAspectRatio="xMidYMid meet" version="1.0"><defs><clipPath id="cb93b3b831"><path d="M 74 182 L 302 182 L 302 370.6875 L 74 370.6875 Z M 74 182 " clip-rule="nonzero"/></clipPath></defs><path fill="#3b992f" d="M 125.679688 226.511719 L 152.472656 122.605469 C 153.894531 117.074219 159.046875 112.703125 164.6875 113.476562 C 170.402344 113.6875 175.195312 117.847656 176.21875 123.46875 L 200.914062 259.402344 L 214.640625 233.054688 C 216.738281 229.007812 220.90625 226.5 225.449219 226.5 L 322.945312 226.5 L 348.523438 198.105469 C 349.398438 197.09375 350.109375 195.96875 350.632812 194.78125 C 364.308594 171.472656 374.703125 151.289062 374.703125 124.566406 C 374.703125 66.96875 327.148438 18.328125 270.871094 18.328125 C 237.054688 18.328125 206.71875 33.59375 187.5625 59.238281 C 168.144531 32.832031 137.273438 16.605469 104.179688 16.605469 C 47.902344 16.605469 0.34375 66.15625 0.34375 124.84375 C 0.34375 151.335938 10.242188 170.648438 24.328125 194.632812 C 24.851562 195.894531 25.589844 197.054688 26.523438 198.105469 L 52.144531 226.484375 Z M 125.679688 226.511719 " fill-opacity="1" fill-rule="nonzero"/><g clip-path="url(#cb93b3b831)"><path fill="#3b992f" d="M 232.847656 250.882812 L 206.15625 302.195312 C 204.023438 306.269531 199.839844 308.753906 195.347656 308.753906 C 194.726562 308.753906 194.101562 308.691406 193.527344 308.59375 C 188.375 307.816406 184.292969 303.84375 183.382812 298.722656 L 162.21875 182.355469 L 146.90625 241.6875 C 145.523438 247.070312 140.667969 250.832031 135.113281 250.832031 L 74.144531 250.832031 L 178.691406 366.601562 C 181.011719 369.152344 184.292969 370.601562 187.722656 370.601562 L 187.738281 370.601562 C 191.179688 370.601562 194.488281 369.152344 196.773438 366.578125 L 301.019531 250.832031 Z M 232.847656 250.882812 " fill-opacity="1" fill-rule="nonzero"/></g></svg>