<svg xmlns="http://www.w3.org/2000/svg" xmlns:xlink="http://www.w3.org/1999/xlink" width="500" zoomAndPan="magnify" viewBox="0 0 375 374.999991" height="500" preserveAspectRatio="xMidYMid meet" version="1.0"><defs><clipPath id="a534017a16"><path d="M 251.503906 4.109375 L 353.503906 4.109375 L 353.503906 113 L 251.503906 113 Z M 251.503906 4.109375 " clip-rule="nonzero"/></clipPath><clipPath id="1b2d2c859b"><path d="M 276 169 L 329 169 L 329 190.109375 L 276 190.109375 Z M 276 169 " clip-rule="nonzero"/></clipPath><clipPath id="bc95b9e8f5"><path d="M 16.292969 72.355469 L 251.792969 72.355469 L 251.792969 307.855469 L 16.292969 307.855469 Z M 16.292969 72.355469 " clip-rule="nonzero"/></clipPath></defs><g clip-path="url(#a534017a16)"><path fill="#37cc65" d="M 353.503906 74.785156 L 327.996094 39.457031 L 302.503906 4.125 L 277.011719 39.457031 L 251.503906 74.785156 L 276.878906 74.785156 L 276.878906 112.3125 L 328.128906 112.3125 L 328.128906 74.785156 Z M 353.503906 74.785156 " fill-opacity="1" fill-rule="nonzero"/></g><path fill="#37aa65" d="M 276.878906 117.863281 L 328.128906 117.863281 L 328.128906 138.316406 L 276.878906 138.316406 Z M 276.878906 117.863281 " fill-opacity="1" fill-rule="nonzero"/><path fill="#226a3f" d="M 276.878906 143.75 L 276.878906 164.203125 L 328.128906 164.203125 L 328.128906 143.75 Z M 276.878906 143.75 " fill-opacity="1" fill-rule="nonzero"/><g clip-path="url(#1b2d2c859b)"><path fill="#1a502f" d="M 276.878906 169.636719 L 328.128906 169.636719 L 328.128906 190.089844 L 276.878906 190.089844 Z M 276.878906 169.636719 " fill-opacity="1" fill-rule="nonzero"/></g><g clip-path="url(#bc95b9e8f5)"><path fill="#37aa65" d="M 251.792969 190.105469 C 251.792969 255.402344 199.339844 307.855469 134.042969 307.855469 C 68.742188 307.855469 16.292969 255.402344 16.292969 190.105469 C 16.292969 124.808594 68.742188 72.355469 134.042969 72.355469 C 199.339844 72.355469 251.792969 124.808594 251.792969 190.105469 Z M 208.972656 162.808594 L 161.339844 162.808594 L 161.339844 115.175781 L 106.210938 115.175781 L 106.210938 162.808594 L 58.574219 162.808594 L 58.574219 217.9375 L 106.210938 217.9375 L 106.210938 265.039062 L 161.339844 265.039062 L 161.339844 217.402344 L 208.972656 217.402344 Z M 208.972656 162.808594 " fill-opacity="1" fill-rule="nonzero"/></g></svg>