<svg xmlns="http://www.w3.org/2000/svg" xmlns:xlink="http://www.w3.org/1999/xlink" width="500" zoomAndPan="magnify" viewBox="0 0 375 374.999991" height="500" preserveAspectRatio="xMidYMid meet" version="1.0"><path fill="#253033" d="M 375 187.5 C 375 291.0625 291.0625 375 187.5 375 C 83.953125 375 0 291.0625 0 187.5 C 0 83.953125 83.953125 0 187.5 0 C 291.0625 0 375 83.953125 375 187.5 " fill-opacity="1" fill-rule="nonzero"/><path fill="#253033" d="M 92.339844 206.816406 L 128.246094 206.816406 C 128.777344 206.816406 129.308594 207 129.710938 207.347656 L 191.96875 261.914062 L 191.96875 113.085938 L 129.710938 167.632812 C 129.308594 168 128.777344 168.183594 128.246094 168.183594 L 92.339844 168.183594 Z M 194.183594 268.980469 C 193.652344 268.980469 193.140625 268.796875 192.71875 268.433594 L 127.421875 211.230469 L 90.144531 211.230469 C 88.914062 211.230469 87.945312 210.242188 87.945312 209.015625 L 87.945312 165.984375 C 87.945312 164.757812 88.914062 163.769531 90.144531 163.769531 L 127.421875 163.769531 L 192.71875 106.566406 C 193.378906 105.980469 194.292969 105.851562 195.082031 106.21875 C 195.886719 106.566406 196.378906 107.355469 196.378906 108.214844 L 196.378906 266.785156 C 196.378906 267.644531 195.886719 268.433594 195.082031 268.796875 C 194.789062 268.910156 194.496094 268.980469 194.183594 268.980469 " fill-opacity="1" fill-rule="nonzero"/><path fill="#efefef" d="M 128.246094 168.183594 L 92.339844 168.183594 L 92.339844 206.816406 L 128.246094 206.816406 C 128.777344 206.816406 129.308594 207 129.710938 207.347656 L 191.96875 261.914062 L 191.96875 113.085938 L 129.710938 167.632812 C 129.308594 168 128.777344 168.183594 128.246094 168.183594 " fill-opacity="1" fill-rule="nonzero"/><path fill="#efefef" d="M 196.378906 266.785156 C 196.378906 267.644531 195.886719 268.433594 195.082031 268.796875 C 194.789062 268.910156 194.496094 268.980469 194.183594 268.980469 C 193.652344 268.980469 193.140625 268.796875 192.71875 268.433594 L 127.421875 211.230469 L 90.144531 211.230469 C 88.914062 211.230469 87.945312 210.242188 87.945312 209.015625 L 87.945312 165.984375 C 87.945312 164.757812 88.914062 163.769531 90.144531 163.769531 L 127.421875 163.769531 L 192.71875 106.566406 C 193.378906 105.980469 194.292969 105.851562 195.082031 106.21875 C 195.886719 106.566406 196.378906 107.355469 196.378906 108.214844 Z M 198.871094 86.902344 L 123.394531 153.039062 L 89.355469 153.039062 C 82.652344 153.039062 77.195312 158.476562 77.195312 165.199219 L 77.195312 209.800781 C 77.195312 216.523438 82.652344 221.941406 89.355469 221.941406 L 123.394531 221.941406 L 198.871094 288.097656 C 202.09375 290.898438 207.109375 288.628906 207.109375 284.363281 L 207.109375 90.636719 C 207.109375 86.371094 202.09375 84.101562 198.871094 86.902344 " fill-opacity="1" fill-rule="nonzero"/><path fill="#efefef" d="M 224.304688 235.859375 C 222.546875 235.859375 220.878906 234.777344 220.203125 233.039062 C 219.304688 230.769531 220.441406 228.203125 222.710938 227.324219 C 239.226562 220.878906 249.902344 205.261719 249.902344 187.5 C 249.902344 169.738281 239.226562 154.121094 222.710938 147.675781 C 220.441406 146.796875 219.304688 144.230469 220.203125 141.960938 C 221.082031 139.691406 223.625 138.574219 225.914062 139.453125 C 245.855469 147.214844 258.726562 166.078125 258.726562 187.5 C 258.726562 208.921875 245.855469 227.78125 225.914062 235.546875 C 225.382812 235.75 224.835938 235.859375 224.304688 235.859375 " fill-opacity="1" fill-rule="nonzero"/><path fill="#efefef" d="M 238.53125 272.242188 C 236.773438 272.242188 235.105469 271.179688 234.429688 269.441406 C 233.53125 267.167969 234.648438 264.625 236.921875 263.726562 C 268.046875 251.511719 288.976562 220.878906 288.976562 187.5 C 288.976562 154.121094 268.046875 123.484375 236.921875 111.273438 C 234.648438 110.394531 233.53125 107.832031 234.429688 105.558594 C 235.308594 103.289062 237.871094 102.171875 240.144531 103.070312 C 274.621094 116.601562 297.800781 150.53125 297.800781 187.5 C 297.800781 224.46875 274.621094 258.398438 240.144531 271.929688 C 239.613281 272.148438 239.082031 272.242188 238.53125 272.242188 " fill-opacity="1" fill-rule="nonzero"/></svg>